<?xml version="1.0" encoding="UTF-8" standalone="no"?>
<svg
   xmlns:dc="http://purl.org/dc/elements/1.1/"
   xmlns:cc="http://creativecommons.org/ns#"
   xmlns:rdf="http://www.w3.org/1999/02/22-rdf-syntax-ns#"
   xmlns:svg="http://www.w3.org/2000/svg"
   xmlns="http://www.w3.org/2000/svg"
   xmlns:xlink="http://www.w3.org/1999/xlink"
   xmlns:sodipodi="http://sodipodi.sourceforge.net/DTD/sodipodi-0.dtd"
   xmlns:inkscape="http://www.inkscape.org/namespaces/inkscape"
   viewBox="0 0 615 415"
   version="1.1"
   id="svg7417"
   sodipodi:docname="zirkuszelt.svg"
   width="615"
   height="415"
   inkscape:version="1.0.2 (e86c870879, 2021-01-15)">
  <metadata
     id="metadata7423">
    <rdf:RDF>
      <cc:Work
         rdf:about="">
        <dc:format>image/svg+xml</dc:format>
        <dc:type
           rdf:resource="http://purl.org/dc/dcmitype/StillImage" />
        <dc:title></dc:title>
      </cc:Work>
    </rdf:RDF>
  </metadata>
  <defs
     id="defs7421" />
  <sodipodi:namedview
     pagecolor="#ffffff"
     bordercolor="#666666"
     borderopacity="1"
     objecttolerance="10"
     gridtolerance="10"
     guidetolerance="10"
     inkscape:pageopacity="0"
     inkscape:pageshadow="2"
     inkscape:window-width="1894"
     inkscape:window-height="985"
     id="namedview7419"
     showgrid="false"
     fit-margin-top="0"
     fit-margin-left="0"
     fit-margin-right="0"
     fit-margin-bottom="0"
     inkscape:zoom="1.3729167"
     inkscape:cx="358.07966"
     inkscape:cy="236.39995"
     inkscape:window-x="12"
     inkscape:window-y="60"
     inkscape:window-maximized="0"
     inkscape:current-layer="g692"
     inkscape:document-rotation="0" />
  <style
     id="style2">.tent{pointer-events:visible}.tent-text{opacity:0;font-size:2rem;font-family:&quot;Raleway&quot;,&quot;Helvetica Neue&quot;,Helvetica,Arial,sans-serif;font-weight:700;fill:#47172c;text-shadow:0 0 5px #fff;transition:opacity .1s ease-in-out .05s}a.tent:focus .tent-text,a.tent:hover .tent-text{opacity:1}.tent-group{transition:stroke-width .1s ease-in-out}a.tent:focus .tent-group,a.tent:hover .tent-group{stroke:#47172c;stroke-width:.1rem}a.tent:focus .tech-text,a.tent:hover .tech-text{transform:translate(-100px,142px)}a.tent:focus .tech-text path,a.tent:hover .tech-text path{fill:#47172c}.st0{fill:#fff}.st1{fill:none;stroke:#000;stroke-width:.5145;stroke-miterlimit:10}.st10,.st2,.st3,.st4,.st5,.st6,.st7,.st8,.st9{fill:none;stroke:#000;stroke-width:.4122;stroke-miterlimit:10}.st10,.st3,.st4,.st5,.st6,.st7,.st8,.st9{stroke-width:.4025}.st10,.st4,.st5,.st6,.st7,.st8,.st9{stroke-width:.4292}.st10,.st5,.st6,.st7,.st8,.st9{stroke-width:.3311}.st10,.st6,.st7,.st8,.st9{stroke-width:.4591}.st10,.st7,.st8,.st9{stroke-width:.3678}.st10,.st8,.st9{stroke-width:.3591}.st10,.st9{stroke-width:.3829}.st10{stroke-width:.2954}.st11,.st12,.st13,.st14{fill:none;stroke:#020000;stroke-miterlimit:10}.st12,.st13,.st14{stroke:#000}.st13,.st14{stroke-width:.5648}.st14{stroke-width:.4229}.st18{clip-path:url(#SVGID_8_);fill:#fff}.st19,.st20,.st21,.st22,.st23{clip-path:url(#SVGID_8_);fill:#ad3267}.st20,.st21,.st22,.st23{fill:#e64289}.st21,.st22,.st23{fill:#bdb319}.st22,.st23{fill:#ff3c00}.st23{fill:#fcee21}.st25,.st26{clip-path:url(#SVGID_4_)}.st25{fill:none;stroke:#020202;stroke-width:.6942;stroke-miterlimit:10}.st26{fill:#47172c}.st27{clip-path:url(#SVGID_10_)}.st28,.st32,.st44{clip-path:url(#SVGID_12_)}.st32,.st44{fill:none;stroke:#000;stroke-width:.8166;stroke-miterlimit:10}.st44{stroke-width:.4083}.st46,.st47,.st48{clip-path:url(#SVGID_32_);fill:#fff}.st47,.st48{fill:#ccc}.st48{fill:#ed1e79}.st49,.st50,.st51,.st52,.st53{clip-path:url(#SVGID_32_);fill:#c1272d}.st50,.st51,.st52,.st53{fill:#fbb03b}.st51,.st52,.st53{fill:#006837}.st52,.st53{fill:#f2f2f2}.st53{fill:#9e005d}.st55,.st57,.st58,.st59,.st60{clip-path:url(#SVGID_32_);fill:#999}.st57,.st58,.st59,.st60{fill:#00a99d}.st58,.st59,.st60{fill:#0071bc}.st59,.st60{fill:#e6e6e6}.st60{fill:#009245}.st66{clip-path:url(#SVGID_12_);fill:none;stroke:#000;stroke-width:.2041;stroke-miterlimit:10}.st67{clip-path:url(#SVGID_34_);fill:#47172c}.st68{fill:none;stroke:#000;stroke-width:.6833;stroke-miterlimit:10}.st70{clip-path:url(#SVGID_36_)}.st71{clip-path:url(#SVGID_38_)}.st73,.st74,.st75,.st76{clip-path:url(#SVGID_42_);fill:#999}.st74,.st75,.st76{fill:#e6e6e6}.st75,.st76{fill:#fff}.st76{fill:#f2f2f2}.st77,.st81{clip-path:url(#SVGID_38_);fill:none;stroke:#000;stroke-width:.8794;stroke-miterlimit:10}.st81{stroke-width:1.7589}.st83,.st84,.st85,.st86{clip-path:url(#SVGID_50_);fill:#999}.st84,.st85,.st86{fill:#f2f2f2}.st85,.st86{fill:#fff}.st86{fill:#e6e6e6}.st88{clip-path:url(#SVGID_54_);fill:#e64289}.st90{clip-path:url(#SVGID_38_);fill:none;stroke:#000;stroke-width:.6596;stroke-miterlimit:10}.st92,.st93,.st94,.st95,.st96{clip-path:url(#SVGID_58_);fill:#999}.st93,.st94,.st95,.st96{fill:#f2f2f2}.st94,.st95,.st96{fill:#b3b3b3}.st95,.st96{fill:#fff}.st96{fill:#e6e6e6}.st102,.st103,.st104,.st105{clip-path:url(#SVGID_66_);fill:#f2f2f2}.st103,.st104,.st105{fill:#fff}.st104,.st105{fill:#e6e6e6}.st105{fill:#b3b3b3}.st110,.st111,.st112,.st113{clip-path:url(#SVGID_74_);fill:#f2f2f2}.st111,.st112,.st113{fill:#999}.st112,.st113{fill:#fff}.st113{fill:#e6e6e6}.st118,.st119,.st120,.st121{clip-path:url(#SVGID_82_);fill:#999}.st119,.st120,.st121{fill:#f2f2f2}.st120,.st121{fill:#b3b3b3}.st121{fill:#fff}.st128,.st129,.st130,.st131{clip-path:url(#SVGID_90_);fill:#f2f2f2}.st129,.st130,.st131{fill:#999}.st130,.st131{fill:#fff}.st131{fill:#e6e6e6}.st135{clip-path:url(#SVGID_96_);fill:#47172c}.st137{clip-path:url(#SVGID_100_)}.st139{clip-path:url(#SVGID_104_);fill:#999}.st140,.st141,.st142,.st143{clip-path:url(#SVGID_104_);fill:#e6e6e6}.st141,.st142,.st143{fill:#b3b3b3}.st142,.st143{fill:#fff}.st143{fill:#f2f2f2}.st144{clip-path:url(#SVGID_100_);fill:none;stroke:#000;stroke-width:.5069;stroke-miterlimit:10}.st148,.st149{clip-path:url(#SVGID_108_);fill:#e64289}.st149{fill:#f9f6d7}.st152,.st153,.st155,.st156{clip-path:url(#SVGID_112_);fill:#999}.st153,.st155,.st156{fill:#e6e6e6}.st155,.st156{fill:#fff}.st156{fill:#f2f2f2}.st158{clip-path:url(#SVGID_116_);fill:#e64289}.st161{clip-path:url(#SVGID_120_);fill:#999}.st162,.st163,.st164,.st165{clip-path:url(#SVGID_120_);fill:#e6e6e6}.st163,.st164,.st165{fill:#fff}.st164,.st165{fill:#f2f2f2}.st165{fill:#b3b3b3}.st167{clip-path:url(#SVGID_124_);fill:#e64289}.st169{clip-path:url(#SVGID_100_);fill:#47172c}.st170{clip-path:url(#SVGID_126_)}.st173,.st174{clip-path:url(#SVGID_132_);fill:#ad3267}.st174{fill:#e64289}.st175,.st176,.st177,.st178{clip-path:url(#SVGID_132_);fill:#bdccd4}.st176,.st177,.st178{fill:#f8a16b}.st177,.st178{fill:#ba7950}.st178{fill:#50c3ea}.st179{clip-path:url(#SVGID_128_);fill:none;stroke:#000;stroke-width:.4063;stroke-linecap:round;stroke-linejoin:round}.st182,.st183{clip-path:url(#SVGID_138_);fill:#e64289}.st183{fill:#47172c}.st184{clip-path:url(#SVGID_134_);fill:none;stroke:#47172c;stroke-width:.8125;stroke-miterlimit:10}.st185{clip-path:url(#SVGID_140_)}.st188,.st189,.st190,.st191{clip-path:url(#SVGID_146_);fill:#bfac0a}.st189,.st190,.st191{fill:#ffe50d}.st190,.st191{fill:#ba7950}.st191{fill:#f8a16b}.st194,.st198,.st199,.st201{clip-path:url(#SVGID_146_);fill:#7c5136}.st198,.st199,.st201{fill:#ffffb0}.st199,.st201{fill:#006837}.st201{fill:#8f8108}.st203{clip-path:url(#SVGID_142_);fill:none;stroke:#000;stroke-width:.2846;stroke-miterlimit:10}.st204,.st205{clip-path:url(#SVGID_140_);fill:#f9fc75}.st205{fill:none;stroke:#fffc8d;stroke-width:.2846;stroke-miterlimit:10}.st208,.st209,.st210{clip-path:url(#SVGID_152_);fill:#ad3267}.st209,.st210{fill:#e64289}.st210{fill:#ffe50d}.st211,.st212{clip-path:url(#SVGID_148_);fill:none;stroke:#000;stroke-width:.2846;stroke-miterlimit:10}.st212{stroke:#47172c;stroke-width:1.1383}.st213{clip-path:url(#SVGID_154_)}.st217,.st218{clip-path:url(#SVGID_160_);fill:#bdb319}.st218{fill:#ccbbac}.st219{clip-path:url(#SVGID_156_);fill:none;stroke:#000;stroke-width:.2431;stroke-miterlimit:10}.st220{clip-path:url(#SVGID_162_);fill:#e64289}.st221{clip-path:url(#SVGID_164_)}.st224{clip-path:url(#SVGID_170_);fill:#999}.st225,.st226,.st227,.st228{clip-path:url(#SVGID_170_);fill:#e6e6e6}.st226,.st227,.st228{fill:#ccc}.st227,.st228{fill:#fff}.st228{fill:#f2f2f2}.st229{clip-path:url(#SVGID_166_);fill:none;stroke:#000;stroke-width:.3043;stroke-miterlimit:10}.st233{clip-path:url(#SVGID_176_);fill:#e64289}.st235,.st236,.st237{clip-path:url(#SVGID_172_);fill:none;stroke:#000;stroke-width:.3043;stroke-miterlimit:10}.st236,.st237{stroke:#47172c;stroke-width:1.5214}.st237{stroke:#fff;stroke-width:.9128}.st238{clip-path:url(#SVGID_178_)}.st241,.st242,.st244,.st245{clip-path:url(#SVGID_184_);fill:#999}.st242,.st244,.st245{fill:#e6e6e6}.st244,.st245{fill:#fff}.st245{fill:#f2f2f2}.st246{clip-path:url(#SVGID_180_);fill:none;stroke:#000;stroke-width:.5522;stroke-miterlimit:10}.st249{clip-path:url(#SVGID_190_);fill:#e64289}.st251,.st252,.st253{clip-path:url(#SVGID_186_);fill:none;stroke:#000;stroke-width:.5522;stroke-miterlimit:10}.st252,.st253{stroke:#47172c;stroke-width:2.7609}.st253{stroke:#fff;stroke-width:1.1044}.st254{clip-path:url(#SVGID_192_)}.st257,.st258{clip-path:url(#SVGID_200_);fill:#dabb99}.st258{fill:#9bebcf}.st259,.st260,.st261,.st262{clip-path:url(#SVGID_200_);fill:#aaf5f5}.st260,.st261,.st262{fill:#50d7ce}.st261,.st262{fill:#7ccff2}.st262{fill:#2f43ac}.st263{clip-path:url(#SVGID_196_);fill:none;stroke:#000;stroke-width:.2562;stroke-miterlimit:10}.st264{clip-path:url(#SVGID_202_)}.st267{clip-path:url(#SVGID_208_);fill:#2e3192}.st268,.st269,.st270,.st271{clip-path:url(#SVGID_208_);fill:#83cdff}.st269,.st270,.st271{fill:#f5f2e3}.st270,.st271{fill:#2d2d2d}.st271{fill:#545556}.st272{clip-path:url(#SVGID_204_);fill:none;stroke:#000;stroke-width:.4108;stroke-miterlimit:10}.st273{clip-path:url(#SVGID_210_);fill:#f8a16b}.st274{fill:none;stroke:#000;stroke-width:.5482;stroke-miterlimit:10}.st275{clip-path:url(#SVGID_212_)}.st278,.st280{clip-path:url(#SVGID_218_);fill:#e6e6e6}.st280{fill:#f2f2f2}.st281,.st283,.st284,.st286{clip-path:url(#SVGID_218_);fill:#c69c6d}.st283,.st284,.st286{fill:#8c6239}.st284,.st286{fill:#a67c52}.st286{fill:#f7f3e7}.st288,.st289{clip-path:url(#SVGID_214_);fill:none;stroke:#000}.st288{stroke-width:.2563;stroke-miterlimit:10}.st289{stroke-width:.1282;stroke-linecap:round;stroke-linejoin:round}.st290,.st291{clip-path:url(#SVGID_220_);fill:#e64289}.st291{fill:#00f}.st292,.st293,.st294,.st297{clip-path:url(#SVGID_220_);fill:#f7931e}.st293,.st294,.st297{fill:#009245}.st294,.st297{fill:#fcee21}.st297{fill:#47172c}.st301{fill:#fcee21}.st301,.st303,.st304{clip-path:url(#SVGID_228_)}.st304{fill:#fff}.st305{clip-path:url(#SVGID_224_);fill:none;stroke:#000;stroke-width:.3513;stroke-miterlimit:10}.st308{fill:#e64289}.st309{fill:#fcee21}.st310{fill:none;stroke:#000;stroke-width:.5863;stroke-miterlimit:10}.st312{fill:#dbc946}.st312,.st313,.st314{clip-path:url(#SVGID_232_)}.st313{fill:#e8d956}.st314{stroke:#000;stroke-width:.1983}.st314,.st315,.st316{fill:none;stroke-miterlimit:10}.st315{clip-path:url(#SVGID_232_);stroke:#bcae46;stroke-width:.1983}.st316{stroke:#e8d956}.st316,.st317,.st318{clip-path:url(#SVGID_232_);stroke-width:.1983}.st317{fill:none;stroke:#9b902a;stroke-miterlimit:10}.st318{stroke:#aea341}.st318,.st319,.st320,.st321{fill:none;stroke-miterlimit:10}.st319{clip-path:url(#SVGID_232_);stroke:#f7931e;stroke-width:.1983}.st320,.st321{stroke-width:.1777}.st320{clip-path:url(#SVGID_232_);stroke:#000}.st321{stroke:#bcae46}.st321,.st322,.st323{clip-path:url(#SVGID_232_)}.st322{fill:none;stroke:#e8d956;stroke-width:.1777;stroke-miterlimit:10}.st323{stroke:#9b902a}.st323,.st324,.st325{fill:none;stroke-width:.1777;stroke-miterlimit:10}.st324{clip-path:url(#SVGID_232_);stroke:#aea341}.st325{stroke:#f7931e}.st325,.st326{clip-path:url(#SVGID_232_)}.st328{clip-path:url(#SVGID_236_);fill:#bc842c}.st329,.st330,.st331,.st332{clip-path:url(#SVGID_236_);fill:#ba7950}.st330,.st331,.st332{fill:#fbb03b}.st331,.st332{fill:#f8a16b}.st332{fill:#009245}.st333,.st334{clip-path:url(#SVGID_232_);fill:none;stroke:#000;stroke-width:.1856}.st333{stroke-miterlimit:10}.st334{stroke-linecap:round;stroke-linejoin:round}.st336{clip-path:url(#SVGID_240_);fill:#ba7950}.st337,.st338,.st339,.st340{clip-path:url(#SVGID_240_);fill:#bc842c}.st338,.st339,.st340{fill:#fbb03b}.st339,.st340{fill:#f8a16b}.st340{fill:#009245}.st342{clip-path:url(#SVGID_244_);fill:#ba7950}.st343,.st344,.st345,.st346{clip-path:url(#SVGID_244_);fill:#bc842c}.st344,.st345,.st346{fill:#fbb03b}.st345,.st346{fill:#f8a16b}.st346{fill:#009245}.st348{clip-path:url(#SVGID_248_);fill:#ba7950}.st349,.st350,.st351,.st352{clip-path:url(#SVGID_248_);fill:#bc842c}.st350,.st351,.st352{fill:#fbb03b}.st351,.st352{fill:#f8a16b}.st352{fill:#009245}.st354{clip-path:url(#SVGID_252_);fill:#bc842c}.st355,.st356,.st357,.st358{clip-path:url(#SVGID_252_);fill:#ba7950}.st356,.st357,.st358{fill:#fbb03b}.st357,.st358{fill:#f8a16b}.st358{fill:#009245}.st360{clip-path:url(#SVGID_256_);fill:#bc842c}.st361,.st362,.st363,.st364{clip-path:url(#SVGID_256_);fill:#ba7950}.st362,.st363,.st364{fill:#fbb03b}.st363,.st364{fill:#f8a16b}.st364{fill:#009245}</style>
  <g
     id="Zelte"
     inkscape:groupmode="layer"
     transform="translate(86.08,-39.208311)">
    <a
       xlink:href="file:///?p=1885"
       style="display:inline"
       id="tent-zirkus"
       class="tent">
      <g
         class="tent-group"
         id="g694">
        <defs
           id="defs443">
          <path
             id="SVGID_1_"
             d="M -95.69,17 H 878.97 V 580 H -95.69 Z" />
        </defs>
        <clipPath
           id="SVGID_2_">
          <use
             xlink:href="#SVGID_1_"
             style="overflow:visible"
             id="use445"
             x="0"
             y="0"
             width="100%"
             height="100%" />
        </clipPath>
        <g
           clip-path="url(#SVGID_2_)"
           id="g692">
          <defs
             id="defs449">
            <path
               id="SVGID_3_"
               d="M -95.69,17 H 878.97 V 580 H -95.69 Z" />
          </defs>
          <clipPath
             id="SVGID_4_">
            <use
               xlink:href="#SVGID_3_"
               style="overflow:visible"
               id="use451"
               x="0"
               y="0"
               width="100%"
               height="100%" />
          </clipPath>
          <g
             clip-path="url(#SVGID_4_)"
             id="g626"
             transform="translate(-173.6972,3.0765847)">
            <defs
               id="defs455">
              <path
                 id="SVGID_5_"
                 d="M -86.08,48.57 H 859.06 V 551.08 H -86.08 Z" />
            </defs>
            <clipPath
               id="SVGID_6_">
              <use
                 xlink:href="#SVGID_5_"
                 style="overflow:visible"
                 id="use457"
                 x="0"
                 y="0"
                 width="100%"
                 height="100%" />
            </clipPath>
            <g
               clip-path="url(#SVGID_6_)"
               id="g624">
              <defs
                 id="defs461">
                <path
                   id="SVGID_7_"
                   d="M -86.08,48.57 H 859.06 V 551.08 H -86.08 Z" />
              </defs>
              <clipPath
                 id="SVGID_8_">
                <use
                   xlink:href="#SVGID_7_"
                   style="overflow:visible"
                   id="use463"
                   x="0"
                   y="0"
                   width="100%"
                   height="100%" />
              </clipPath>
              <path
                 class="st18"
                 d="m 853.54,355.45 c 1.84,0.62 3.68,1.23 5.52,1.84 a 75.661,75.661 0 0 1 -4.88,11.95 c -0.75,-0.32 -1.51,-0.64 -2.26,-0.96 -0.86,-4.3 -0.3,-8.89 1.62,-12.83"
                 clip-path="url(#SVGID_8_)"
                 id="path466" />
              <path
                 class="st19"
                 d="m 700.01,278.91 c 0.35,1.37 0.71,2.81 0.4,4.2 -0.28,1.24 -1.08,2.3 -1.85,3.31 -1.24,1.62 -2.47,3.24 -3.71,4.86 -1.67,-0.93 -3.35,-1.87 -5.02,-2.81 -1.87,-20.07 -5.64,-27.94 -6.93,-51.68 0.31,0.31 0.74,0.49 1.17,0.47 0.61,-2.15 0.98,-4.37 1.08,-6.6 0.15,-0.29 0.31,-0.59 0.47,-0.88 0.77,0.7 2.28,0.88 3.11,0.08 0.98,-0.95 1.1,-2.42 0.83,-3.8 0.26,0.22 0.6,0.32 0.91,0.18 0.3,-0.14 0.45,-0.47 0.45,-0.8 l 0.37,-0.03 a 304.09,304.09 0 0 0 8.72,53.5"
                 clip-path="url(#SVGID_8_)"
                 id="path468" />
              <path
                 class="st19"
                 d="m 694.85,291.28 c -1.46,1.92 -2.93,3.84 -4.39,5.75 -0.17,-3.1 -0.38,-5.94 -0.62,-8.57 1.66,0.95 3.34,1.89 5.01,2.82 m -87.34,24.4 c -0.09,-0.37 -0.19,-0.74 -0.29,-1.1 0,0.41 0.1,0.78 0.29,1.1 m -86.85,44.35 c -0.08,-0.15 -0.15,-0.3 -0.24,-0.44 0.06,0.14 0.14,0.28 0.24,0.44 M 688.48,224.78 c -0.15,0.22 -1.51,2.51 -2.85,4.99 -0.2,-0.19 -0.35,-0.4 -0.43,-0.65 0,-0.25 -0.01,-0.49 -0.01,-0.74 -0.07,0.27 -0.06,0.52 0.01,0.74 0,0.51 -0.01,1.02 -0.04,1.53 -1.23,2.32 -2.33,4.64 -2.3,5.37 0.01,0.26 0.03,0.51 0.04,0.76 -0.28,-0.27 -0.48,-0.65 -0.5,-1.04 -0.78,2.25 0.32,4.73 0.01,7.09 -0.31,2.36 -3.89,4.28 -4.85,2.1 0.9,2.28 1.82,4.79 1.04,7.11 -0.78,2.33 -4.14,3.77 -5.75,1.92 1.08,2.12 2.16,4.67 1.05,6.77 -0.97,1.85 -4.34,1.65 -4.84,0.01 l -0.03,-0.79 c -0.06,0.29 -0.05,0.56 0.03,0.79 0.06,2.57 -0.12,5.14 -0.56,7.67 -0.15,0.87 -0.35,1.8 -0.96,2.45 -1.06,1.14 -3.01,0.97 -4.27,0.06 -1.08,-0.78 -1.78,-1.95 -2.39,-3.14 -0.09,-0.21 -0.2,-0.41 -0.31,-0.6 0.1,0.2 0.2,0.4 0.31,0.6 0.85,1.82 1.06,3.92 0.64,5.88 -1.35,0.07 -2.44,0.58 -2.58,1.66 a 7.55,7.55 0 0 1 -1.51,-2.21 c -0.06,-0.15 -0.12,-0.28 -0.17,-0.42 0.04,0.15 0.1,0.28 0.17,0.42 0.74,1.89 1.33,3.96 0.52,5.79 -0.81,1.81 -3.71,2.47 -4.83,1.12 -0.09,-0.22 -0.2,-0.43 -0.34,-0.63 0.08,0.24 0.19,0.46 0.34,0.63 0.79,1.82 0.21,4.19 -1.42,5.36 -1.83,1.31 -4.67,0.87 -6.02,-0.92 1.05,2.58 0.7,5.96 -1.55,7.6 -1.74,1.27 -4.54,0.68 -5.7,-0.94 -0.15,-0.56 -0.33,-1.13 -0.54,-1.67 -0.01,0.63 0.2,1.19 0.54,1.67 0.51,2.03 0.41,4.1 -1.27,5.66 -0.48,0.44 -1.08,0.85 -1.84,1.2 -0.1,0.05 -0.2,0.09 -0.3,0.12 -0.75,0.15 -1.56,0.29 -2.24,0.58 h -0.01 c -0.6,0.26 -1.09,0.62 -1.31,1.2 -0.71,-0.26 -1.47,-0.76 -2.14,-1.34 -0.52,-0.45 -0.99,-0.95 -1.33,-1.44 0.28,2.25 3.37,8.77 1.31,9.71 -1.47,0.66 -3.39,-0.26 -4.01,-1.59 0.01,-0.58 0,-1.17 -0.02,-1.74 -0.28,0.59 -0.24,1.19 0.02,1.74 -0.05,2.62 -0.56,5.28 -2.44,7 -2.3,2.12 -7.12,1.03 -7.07,-2.08 -0.44,2.38 -1.07,4.98 -3.03,6.39 -1.62,1.18 -4.35,0.72 -5.26,-0.84 0.58,2.33 0.9,4.85 -0.42,6.78 -1.24,1.82 -4.48,1.79 -5.58,0.28 -0.1,-0.44 -0.22,-0.89 -0.35,-1.32 -0.04,0.52 0.1,0.96 0.35,1.32 0.56,2.48 0.49,5.12 -0.22,7.57 -1.48,-0.68 -2.72,-1.83 -3.57,-3.21 -0.07,-1.12 -0.44,-2.24 -1.13,-3.12 0.15,1.11 0.55,2.17 1.13,3.12 0.08,1.04 -0.11,2.09 -0.57,2.99 -2.04,-1.84 -6.03,-3.05 -6.66,-0.59 l -0.65,0.09 c -0.08,-0.53 -0.24,-1.03 -0.49,-1.51 -0.17,0.87 0.07,1.71 0.55,2.4 -0.04,2.11 -1.32,4.23 -3.32,4.98 -2.79,1.04 -6.28,-0.84 -6.94,-3.74 0.55,3.07 -0.56,6.61 -3.28,8.14 -2.72,1.54 -6.89,0.11 -7.44,-2.96 0.28,3.37 -0.51,7.24 -3.4,8.99 -2.1,1.27 -5.23,0.26 -6.39,-1.62 -0.08,-0.82 -0.21,-1.63 -0.33,-2.42 -0.27,0.88 -0.1,1.71 0.33,2.42 0.28,2.72 0.15,5.48 -1.53,7.54 -1.52,1.87 -3.62,1.19 -4.67,-0.56 0.19,-1.12 0.04,-2.12 -0.62,-2.77 a 4.7,4.7 0 0 0 0.41,2.37 l 0.12,0.85 c -0.56,2.34 -2.45,4.98 -4.21,5.66 -2.04,0.78 -4.46,-0.6 -5.25,-2.55 0.01,-0.71 -0.06,-1.42 -0.18,-2.1 -0.18,0.72 -0.1,1.44 0.18,2.1 -0.02,2.61 -0.96,5.23 -3.08,6.66 -2.33,1.57 -6.06,0.7 -7.21,-1.65 -0.05,-0.42 -0.17,-0.84 -0.35,-1.24 0.04,0.45 0.15,0.86 0.35,1.24 0.35,2.31 -0.89,4.85 -3.03,5.83 -2.39,1.1 -7.82,-3.04 -9.43,-5.62 1.74,3.69 -1.19,11.7 -5.1,12.05 -0.96,-1.78 -6.78,-1.62 -8.16,-3.24 l -0.1,0.09 c -0.11,1.62 -0.4,3.35 -1.21,4.73 0.06,-1.68 0.13,-3.32 0.2,-4.91 l 0.25,-0.13 c -0.55,-1.1 -1.1,-2.21 -1.65,-3.33 4.91,-2.33 9.57,-5.17 13.9,-8.63 l 0.24,0.16 c 8.68,-5.43 18.67,-11.05 29,-16.72 13.12,-7.21 26.78,-14.51 38.98,-21.58 3.99,-2.31 7.82,-4.6 11.43,-6.85 8.34,-5.21 16.7,-10.44 24.79,-16.02 8.17,-5.64 16.07,-11.64 23.39,-18.35 3.69,-3.38 7.23,-6.96 10.55,-10.73 7.72,-8.76 14.26,-18.56 18.66,-29.25 1.1,-1.71 2.23,-3.4 3.38,-5.08 3.59,-5.23 7.42,-10.29 11.48,-15.16 l 0.12,0.1 c 0.04,0.94 0.09,1.89 0.15,2.83 0.09,1.8 0.21,3.6 0.34,5.4 l -0.37,0.03 c 0,0.33 -0.15,0.66 -0.45,0.8 -0.31,0.14 -0.65,0.04 -0.91,-0.18 a 9.69,9.69 0 0 0 -0.29,-1.09 l -0.87,-0.03 c 0.09,-0.11 0.11,-0.15 0.12,-0.17"
                 clip-path="url(#SVGID_8_)"
                 id="path470" />
              <path
                 class="st20"
                 d="m 678.28,230.54 c -18.71,-33.46 -43.12,-43.48 -73.87,-71.58 -23.37,-21.35 -53.18,-35.21 -75.32,-57.33 l 0.35,-0.29 0.33,0.05 c 4.5,-0.38 8.98,-0.96 13.42,-1.75 7.17,4.57 14.34,9.14 21.51,13.7 14.63,9.34 29.3,18.69 42.94,29.44 29.19,23.01 53.47,52.28 85.01,71.95 a 203.716,203.716 0 0 0 -13.44,17.48 c -0.31,-0.56 -0.61,-1.11 -0.93,-1.67"
                 clip-path="url(#SVGID_8_)"
                 id="path472" />
              <path
                 class="st21"
                 d="m 690.45,297.03 c 0.01,0.26 0.03,0.51 0.04,0.77 l 0.03,0.03 c -5.21,7.7 -10.79,15.34 -16.71,22.83 -3.58,-16.89 -6.49,-30.12 -10.02,-46.77 0.71,0.17 1.4,0.44 1.97,0.77 7.98,4.67 16,9.27 24.06,13.81 0.25,2.62 0.47,5.46 0.63,8.56"
                 clip-path="url(#SVGID_8_)"
                 id="path474" />
              <path
                 class="st19"
                 d="m 689.57,226.04 c 0.26,1.38 0.15,2.85 -0.83,3.8 -0.83,0.81 -2.34,0.62 -3.11,-0.08 1.34,-2.49 2.7,-4.78 2.85,-4.99 -0.01,0.02 -0.03,0.07 -0.07,0.14 l 0.87,0.03 c -0.21,0.38 -0.03,0.84 0.29,1.1"
                 clip-path="url(#SVGID_8_)"
                 id="path476" />
              <path
                 class="st22"
                 d="m 689.28,224.95 c 0.12,0.35 0.22,0.72 0.29,1.09 -0.32,-0.27 -0.5,-0.72 -0.29,-1.09"
                 clip-path="url(#SVGID_8_)"
                 id="path478" />
              <path
                 class="st21"
                 d="m 663.8,273.89 c -0.76,-0.19 -1.54,-0.27 -2.26,-0.24 0.42,-1.96 0.21,-4.06 -0.65,-5.88 0.62,1.19 1.31,2.37 2.39,3.14 1.26,0.91 3.21,1.08 4.27,-0.06 0.61,-0.65 0.81,-1.58 0.96,-2.45 0.43,-2.53 0.61,-5.1 0.56,-7.67 0.5,1.64 3.87,1.84 4.84,-0.01 1.11,-2.1 0.03,-4.65 -1.05,-6.77 1.6,1.85 4.97,0.4 5.75,-1.92 0.78,-2.32 -0.14,-4.83 -1.04,-7.11 0.96,2.18 4.53,0.26 4.85,-2.1 0.31,-2.36 -0.8,-4.84 -0.01,-7.09 0.02,0.4 0.22,0.77 0.5,1.04 1.29,23.74 5.06,31.61 6.93,51.68 -8.06,-4.53 -16.08,-9.14 -24.06,-13.81 -0.58,-0.31 -1.27,-0.58 -1.98,-0.75"
                 clip-path="url(#SVGID_8_)"
                 id="path480" />
              <path
                 class="st22"
                 d="m 685.63,229.77 c -0.16,0.29 -0.32,0.59 -0.47,0.88 0.04,-0.51 0.04,-1.03 0.04,-1.53 0.07,0.24 0.23,0.46 0.43,0.65 m -0.45,-1.4 c 0.01,0.25 0.01,0.49 0.01,0.74 -0.07,-0.22 -0.08,-0.47 -0.01,-0.74"
                 clip-path="url(#SVGID_8_)"
                 id="path482" />
              <path
                 class="st19"
                 d="m 685.16,230.65 c -0.1,2.23 -0.47,4.46 -1.08,6.6 -0.44,0.03 -0.86,-0.16 -1.17,-0.47 -0.01,-0.25 -0.03,-0.51 -0.04,-0.76 -0.05,-0.73 1.06,-3.05 2.29,-5.37"
                 clip-path="url(#SVGID_8_)"
                 id="path484" />
              <path
                 class="st22"
                 d="m 679.21,232.22 c -1.15,1.68 -2.28,3.37 -3.38,5.08 a 80.16,80.16 0 0 0 2.46,-6.76 c 0.31,0.56 0.61,1.11 0.92,1.68"
                 clip-path="url(#SVGID_8_)"
                 id="path486" />
              <path
                 class="st23"
                 d="m 675.83,237.31 c -4.4,10.7 -10.94,20.49 -18.66,29.25 C 646.79,253.5 641.57,242.15 631.69,228.7 604.16,191.21 564.94,166.53 533.88,133 l 0.08,-0.07 c -6.36,-7.25 -12.07,-13.8 -17.7,-21.87 l -0.02,-0.03 c 4.19,-2.58 8.45,-5.65 12.86,-9.39 22.15,22.12 51.95,35.97 75.32,57.33 30.75,28.1 55.16,38.12 73.87,71.58 -0.72,2.29 -1.54,4.54 -2.46,6.76"
                 clip-path="url(#SVGID_8_)"
                 id="path488" />
              <path
                 class="st22"
                 d="m 669.04,259.94 0.03,0.79 a 1.59,1.59 0 0 1 -0.03,-0.79"
                 clip-path="url(#SVGID_8_)"
                 id="path490" />
              <path
                 class="st19"
                 d="m 658.96,275.31 c 0.44,0.46 0.92,0.85 1.45,1.19 0.54,-0.87 0.92,-1.84 1.13,-2.85 0.72,-0.03 1.5,0.05 2.26,0.24 3.53,16.65 6.45,29.88 10.02,46.77 -9.83,12.44 -20.6,24.46 -32.17,35.69 l -0.96,-1.01 c -2.74,-17.61 -8.55,-38.54 -11.28,-56.15 -0.03,-0.09 -0.06,-0.17 -0.08,-0.22 -0.06,-0.15 -0.07,-0.2 -0.06,-0.17 -0.01,-0.01 -0.01,-0.02 -0.01,-0.03 l -0.01,-0.02 0.1,-0.19 c 0.67,0.58 1.44,1.08 2.15,1.34 0.21,-0.58 0.7,-0.94 1.31,-1.2 h 0.01 c 0.77,-0.09 1.53,-0.29 2.24,-0.58 1.27,-0.24 2.33,-0.47 2.14,-1.33 1.68,-1.57 1.78,-3.64 1.27,-5.66 1.16,1.62 3.96,2.21 5.7,0.94 2.26,-1.64 2.61,-5.02 1.55,-7.6 1.35,1.79 4.19,2.22 6.02,0.92 1.63,-1.17 2.21,-3.54 1.42,-5.36 1.12,1.35 4.03,0.69 4.83,-1.12 0.8,-1.83 0.22,-3.9 -0.52,-5.79 0.34,0.8 0.86,1.55 1.49,2.19"
                 clip-path="url(#SVGID_8_)"
                 id="path492" />
              <path
                 class="st22"
                 d="m 660.59,267.17 c 0.11,0.19 0.22,0.4 0.31,0.6 -0.11,-0.2 -0.21,-0.4 -0.31,-0.6 m 0.95,6.48 a 8.9,8.9 0 0 1 -1.13,2.85 c -0.53,-0.33 -1.01,-0.73 -1.45,-1.19 0.14,-1.08 1.23,-1.59 2.58,-1.66 m -4.09,-0.55 c -0.08,-0.14 -0.13,-0.28 -0.17,-0.42 0.05,0.13 0.11,0.27 0.17,0.42 m -4.65,6.27 c 0.14,0.2 0.25,0.41 0.34,0.63 -0.15,-0.17 -0.26,-0.38 -0.34,-0.63"
                 clip-path="url(#SVGID_8_)"
                 id="path494" />
              <path
                 class="st20"
                 d="m 533.88,133 c 31.06,33.53 70.29,58.21 97.81,95.7 9.88,13.45 15.1,24.8 25.48,37.86 -3.33,3.77 -6.87,7.34 -10.55,10.73 -7.32,6.71 -15.22,12.7 -23.39,18.35 l -0.22,-0.33 c -12.05,-35.79 -39.64,-64.03 -68.18,-88.75 -28.44,-24.64 -60.81,-50 -82.76,-80.58 16.65,-3.34 30.07,-6.3 44.17,-14.95 l 0.02,0.03 c 5.63,8.07 11.34,14.61 17.7,21.87 z"
                 clip-path="url(#SVGID_8_)"
                 id="path496" />
              <path
                 class="st21"
                 d="m 640.69,355.34 0.96,1.01 c -2.85,2.77 -5.76,5.5 -8.72,8.16 -11.87,-11.43 -23.75,-22.85 -35.62,-34.28 -0.05,-0.04 -0.1,-0.09 -0.15,-0.13 0.46,-0.9 0.65,-1.95 0.57,-2.99 0.85,1.39 2.09,2.53 3.57,3.21 0.7,-2.45 0.77,-5.08 0.22,-7.57 1.09,1.51 4.33,1.54 5.57,-0.28 1.32,-1.94 1.01,-4.45 0.42,-6.78 0.9,1.56 3.63,2.02 5.26,0.84 1.96,-1.42 2.6,-4.01 3.03,-6.39 -0.05,3.12 4.78,4.2 7.07,2.08 1.88,-1.72 2.39,-4.38 2.44,-7 0.62,1.33 2.54,2.25 4.01,1.59 2.06,-0.93 -1.03,-7.46 -1.31,-9.71 0.34,0.49 0.81,0.99 1.33,1.44 l -0.1,0.19 0.01,0.02 c 0.01,0.01 0.01,0.02 0.01,0.03 -0.01,-0.03 0.01,0.02 0.06,0.17 0.02,0.06 0.05,0.13 0.08,0.22 2.74,17.64 8.55,38.56 11.29,56.17"
                 clip-path="url(#SVGID_8_)"
                 id="path498" />
              <path
                 class="st22"
                 d="m 637.91,289.45 c 0.22,0.54 0.4,1.1 0.54,1.67 -0.35,-0.48 -0.55,-1.04 -0.54,-1.67 m -0.73,7.33 c 0.19,0.85 -0.87,1.08 -2.14,1.33 0.1,-0.03 0.2,-0.08 0.3,-0.12 0.76,-0.36 1.36,-0.77 1.84,-1.21 m -2.14,1.32 c -0.7,0.29 -1.46,0.49 -2.24,0.58 0.68,-0.28 1.49,-0.43 2.24,-0.58"
                 clip-path="url(#SVGID_8_)"
                 id="path500" />
              <path
                 class="st21"
                 d="m 597.31,330.23 c 11.87,11.43 23.75,22.85 35.62,34.28 -8.64,7.8 -17.67,15.14 -27.06,21.85 l -0.16,-0.23 c -6.81,-17.23 -4.18,-36.92 -9.72,-54.56 0.5,-0.4 0.89,-0.9 1.17,-1.47 0.05,0.04 0.1,0.09 0.15,0.13"
                 clip-path="url(#SVGID_8_)"
                 id="path502" />
              <path
                 class="st22"
                 d="m 625.3,303.49 c 0.02,0.57 0.03,1.15 0.02,1.74 -0.27,-0.54 -0.31,-1.15 -0.02,-1.74"
                 clip-path="url(#SVGID_8_)"
                 id="path504" />
              <path
                 class="st23"
                 d="m 623,295.31 0.22,0.33 c -8.09,5.58 -16.45,10.81 -24.79,16.02 -3.61,2.26 -7.44,4.54 -11.43,6.85 -8.62,-18.04 -21.39,-41.78 -31.91,-58.73 -4.64,-7.48 -9.49,-14.88 -15.36,-21.45 -6.64,-7.43 -14.48,-13.69 -22.21,-20 a 1234.737,1234.737 0 0 1 -90.2,-81.37 l -0.28,-1.3 c 10.04,-2.23 20.07,-4.48 30.12,-6.64 5.28,-1.13 10.22,-2.1 14.9,-3.04 21.96,30.57 54.32,55.94 82.76,80.58 28.54,24.72 56.14,52.95 68.18,88.75"
                 clip-path="url(#SVGID_8_)"
                 id="path506" />
              <path
                 class="st18"
                 d="m 615.28,515.75 c -2.61,5.51 -5.21,11.01 -7.82,16.52 l -1.65,-0.73 c -0.59,-0.66 -1.17,-1.32 -1.75,-1.98 v -0.01 c -0.54,-1.79 -0.17,-3.83 0.21,-5.7 0.58,-2.86 1.26,-5.89 3.32,-7.96 2.06,-2.06 6,-2.52 7.69,-0.14"
                 clip-path="url(#SVGID_8_)"
                 id="path508" />
              <path
                 class="st22"
                 d="m 607.22,314.58 c 0.1,0.36 0.2,0.73 0.29,1.1 -0.19,-0.32 -0.29,-0.69 -0.29,-1.1"
                 clip-path="url(#SVGID_8_)"
                 id="path510" />
              <path
                 class="st19"
                 d="m 605.71,386.14 0.16,0.23 c -13.95,9.99 -28.68,18.61 -44.01,25.38 -3.35,-19.96 -6.34,-39.97 -8.98,-60.03 0.03,-0.15 0.07,-0.31 0.09,-0.46 1.05,1.75 3.14,2.43 4.67,0.56 1.67,-2.05 1.8,-4.82 1.53,-7.54 1.16,1.88 4.28,2.89 6.39,1.62 2.89,-1.75 3.67,-5.62 3.39,-8.99 0.56,3.08 4.72,4.5 7.44,2.96 2.71,-1.53 3.83,-5.07 3.28,-8.14 0.65,2.9 4.14,4.78 6.94,3.74 2,-0.75 3.28,-2.87 3.32,-4.98 1.16,1.65 3.72,2.53 5.57,1.45 0.18,-0.1 0.35,-0.22 0.51,-0.36 5.52,17.64 2.89,37.33 9.7,54.56"
                 clip-path="url(#SVGID_8_)"
                 id="path512" />
              <path
                 class="st22"
                 d="m 601.17,321.44 c 0.14,0.43 0.26,0.87 0.35,1.32 -0.26,-0.36 -0.4,-0.8 -0.35,-1.32 m -4.57,2.54 c 0.69,0.89 1.06,2 1.13,3.12 -0.58,-0.94 -0.97,-2.01 -1.13,-3.12"
                 clip-path="url(#SVGID_8_)"
                 id="path514" />
              <path
                 class="st19"
                 d="m 595.99,331.57 c -0.16,0.14 -0.33,0.26 -0.51,0.36 -1.85,1.08 -4.41,0.2 -5.57,-1.45 0.01,-0.29 -0.01,-0.59 -0.06,-0.88 l 0.65,-0.09 c 0.62,-2.46 4.62,-1.25 6.66,0.59 -0.28,0.57 -0.67,1.08 -1.17,1.47"
                 clip-path="url(#SVGID_8_)"
                 id="path516" />
              <path
                 class="st22"
                 d="m 589.86,329.6 c 0.05,0.29 0.07,0.59 0.06,0.88 -0.48,-0.69 -0.72,-1.52 -0.55,-2.4 0.25,0.49 0.41,0.99 0.49,1.52"
                 clip-path="url(#SVGID_8_)"
                 id="path518" />
              <path
                 class="st20"
                 d="m 555.09,259.78 c 10.52,16.95 23.3,40.69 31.91,58.73 -12.2,7.07 -25.86,14.37 -38.98,21.58 -16.47,-34.97 -33.56,-70.66 -61.14,-97.72 -8.62,-8.46 -18.15,-15.93 -27.65,-23.38 -30.81,-24.17 -57.96,-45.57 -88.77,-69.75 l -1.22,-1.51 c 4.28,-0.86 8.63,-1.81 13.28,-2.69 14.9,-2.83 29.72,-6.08 44.52,-9.38 l 0.28,1.3 c 28.71,28.58 58.82,55.74 90.2,81.37 7.73,6.31 15.56,12.57 22.21,20 5.87,6.56 10.72,13.96 15.36,21.45"
                 clip-path="url(#SVGID_8_)"
                 id="path520" />
              <path
                 class="st22"
                 d="m 558.83,341.86 c 0.12,0.78 0.25,1.6 0.33,2.42 -0.44,-0.71 -0.61,-1.54 -0.33,-2.42"
                 clip-path="url(#SVGID_8_)"
                 id="path522" />
              <path
                 class="st21"
                 d="m 552.88,351.71 c 2.65,20.06 5.64,40.08 8.98,60.03 -10.43,4.62 -21.14,8.37 -32.07,11.11 A 560.836,560.836 0 0 1 507.27,375.78 L 506,375.73 c 0.03,-0.7 0.05,-1.39 0.08,-2.08 0.81,-1.37 1.1,-3.1 1.21,-4.73 l 0.1,-0.09 c 1.38,1.62 7.2,1.46 8.16,3.24 3.91,-0.35 6.84,-8.37 5.1,-12.05 1.62,2.58 7.04,6.73 9.43,5.62 2.15,-0.99 3.39,-3.52 3.03,-5.83 1.15,2.35 4.89,3.22 7.21,1.65 2.12,-1.43 3.06,-4.05 3.08,-6.66 0.79,1.94 3.21,3.33 5.25,2.55 1.78,-0.66 3.66,-3.3 4.23,-5.64"
                 clip-path="url(#SVGID_8_)"
                 id="path524" />
              <path
                 class="st22"
                 d="m 552.76,350.86 c -0.32,-0.69 -0.48,-1.51 -0.41,-2.37 0.66,0.65 0.81,1.65 0.62,2.77 -0.07,-0.13 -0.14,-0.26 -0.21,-0.4"
                 clip-path="url(#SVGID_8_)"
                 id="path526" />
              <path
                 class="st22"
                 d="m 552.76,350.86 c 0.07,0.14 0.14,0.27 0.21,0.4 -0.02,0.15 -0.06,0.31 -0.09,0.46 -0.05,-0.29 -0.08,-0.58 -0.12,-0.86"
                 clip-path="url(#SVGID_8_)"
                 id="path528" />
              <path
                 d="m 543.19,99.65 c -4.44,0.78 -8.92,1.37 -13.42,1.75 4.65,-5.7 7.93,-12.51 9.47,-19.7 1.04,5.75 4.67,12.16 7.23,17.34 -1.09,0.21 -2.18,0.42 -3.28,0.61 m -0.57,-0.37 0.01,-0.01 c 1.71,-0.78 -0.1,-4.56 -0.69,-2.78 -0.57,1.72 -0.73,1.87 0.68,2.79"
                 style="fill:#ff0000"
                 clip-path="url(#SVGID_8_)"
                 id="path530" />
              <path
                 class="st22"
                 d="m 543.24,352.72 c 0.12,0.69 0.19,1.4 0.18,2.1 -0.28,-0.66 -0.36,-1.38 -0.18,-2.1"
                 clip-path="url(#SVGID_8_)"
                 id="path532" />
              <path
                 class="st20"
                 d="m 541.94,96.49 c 0.59,-1.78 2.4,2 0.69,2.78 l -0.01,0.01 c -1.41,-0.92 -1.25,-1.07 -0.68,-2.79"
                 clip-path="url(#SVGID_8_)"
                 id="path534" />
              <path
                 class="st22"
                 d="m 532.78,358.59 c 0.17,0.4 0.29,0.81 0.35,1.24 -0.2,-0.38 -0.32,-0.79 -0.35,-1.24"
                 clip-path="url(#SVGID_8_)"
                 id="path536" />
              <path
                 class="st21"
                 d="m 529.79,422.86 c -0.81,0.21 -1.62,0.4 -2.43,0.6 -7.11,2.53 -14.29,4.78 -21.53,6.81 -0.64,-16.18 -0.45,-37.19 0.17,-54.53 l 1.27,0.05 a 560.702,560.702 0 0 0 22.52,47.07"
                 clip-path="url(#SVGID_8_)"
                 id="path538" />
              <path
                 class="st23"
                 d="m 486.88,242.37 c 27.58,27.05 44.67,62.75 61.14,97.72 -10.32,5.67 -20.31,11.29 -29,16.72 l -0.24,-0.16 c -4.33,3.46 -8.99,6.3 -13.9,8.63 -11.71,-23.9 -24.4,-53.59 -40.99,-73.68 -24.23,-29.36 -56.77,-50.55 -84.24,-76.9 a 300.657,300.657 0 0 1 -54.93,-71.49 l 0.42,-0.47 c 7.27,6.55 9.99,7.68 14.79,7.89 10.96,0.48 19.96,-1.01 29.32,-2.9 l 1.22,1.51 c 30.81,24.17 57.96,45.57 88.77,69.75 9.5,7.46 19.02,14.93 27.64,23.38"
                 clip-path="url(#SVGID_8_)"
                 id="path540" />
              <path
                 class="st22"
                 d="m 520.41,359.59 c 0.09,0.14 0.17,0.28 0.24,0.44 -0.09,-0.16 -0.17,-0.3 -0.24,-0.44"
                 clip-path="url(#SVGID_8_)"
                 id="path542" />
              <path
                 class="st20"
                 d="m 513.15,67.52 c 1.33,5.51 0.81,12.54 -4.2,15.18 a 1027.673,1027.673 0 0 1 -161.37,29.29 l -0.02,-0.23 c -7.87,-10.7 -1.4,-32 -7.64,-43.73 v -0.24 c 57.73,-0.03 116.09,-2.44 170.63,-19.21 -0.99,5.5 1.33,13.65 2.6,18.94"
                 clip-path="url(#SVGID_8_)"
                 id="path544" />
              <path
                 class="st19"
                 d="m 402.34,380.3 c -0.35,-0.65 -0.69,-1.3 -1.03,-1.96 13.68,-0.39 27.36,-0.89 41.03,-1.49 21.26,-0.94 43.7,-2.58 62.53,-11.57 0.55,1.12 1.1,2.24 1.65,3.33 l -0.25,0.13 c -0.07,1.6 -0.14,3.23 -0.2,4.91 a 5.07,5.07 0 0 1 -1.3,1.51 c -1.53,1.19 -4.18,0.85 -5.12,-0.66 a 2.6,2.6 0 0 0 -0.33,-0.97 c 0.03,0.37 0.15,0.69 0.33,0.97 0.31,1.96 -1.45,4.17 -3.55,4.2 -2.19,0.03 -4.05,-1.98 -4.28,-4.16 0.01,-0.25 0,-0.51 -0.02,-0.76 -0.02,0.25 -0.01,0.51 0.02,0.76 -0.1,2.62 -1.95,5.14 -4.47,5.93 -2.76,0.86 -6.04,-0.44 -7.46,-2.95 -0.08,3.18 -2.6,6.12 -5.73,6.7 -3.13,0.57 -6.53,-1.3 -7.73,-4.25 0.26,3.39 -3.37,6.22 -6.74,5.87 -3.38,-0.35 -6.13,-3.17 -7.26,-6.37 -0.95,2.85 -3.67,5.01 -6.65,5.31 -2.99,0.31 -6.08,-1.28 -7.58,-3.88 0.45,2.91 -2.68,5.48 -5.62,5.25 -2.94,-0.24 -5.37,-2.51 -6.76,-5.11 0.31,3.26 -2.48,6.48 -5.74,6.65 -3.17,0.16 -6.19,-2.58 -6.39,-5.73 -0.08,3.01 -2.99,5.69 -6,5.43 -2.69,-0.24 -4.88,-2.75 -5.01,-5.39 l -0.1,0.01 a 4,4 0 0 0 -0.49,-1.57 z"
                 clip-path="url(#SVGID_8_)"
                 id="path546" />
              <path
                 class="st19"
                 d="m 506.08,373.66 c -0.03,0.68 -0.06,1.37 -0.08,2.08 -0.62,17.33 -0.81,38.35 -0.17,54.53 -29.46,8.24 -59.9,12.59 -90.59,15.09 a 676.721,676.721 0 0 1 -12.86,-38.94 c -0.02,-7.16 0.05,-14.47 0.21,-22.3 l -0.24,-0.09 c 0.22,-0.65 0.32,-1.35 0.25,-2.02 l 0.1,-0.01 c 0.13,2.65 2.33,5.16 5.01,5.39 3.02,0.26 5.93,-2.42 6,-5.43 0.2,3.15 3.21,5.89 6.39,5.73 3.26,-0.17 6.05,-3.39 5.74,-6.65 1.4,2.6 3.83,4.87 6.76,5.11 2.94,0.23 6.07,-2.34 5.62,-5.25 1.5,2.6 4.6,4.19 7.58,3.88 2.99,-0.3 5.7,-2.46 6.65,-5.31 1.13,3.2 3.88,6.02 7.26,6.37 3.37,0.35 7,-2.48 6.74,-5.87 1.19,2.95 4.6,4.82 7.73,4.25 3.12,-0.58 5.65,-3.52 5.73,-6.7 1.42,2.51 4.71,3.81 7.46,2.95 2.52,-0.79 4.37,-3.3 4.47,-5.93 0.23,2.18 2.09,4.19 4.28,4.16 2.1,-0.03 3.85,-2.24 3.55,-4.2 0.94,1.51 3.58,1.85 5.12,0.66 0.53,-0.41 0.96,-0.92 1.29,-1.5"
                 clip-path="url(#SVGID_8_)"
                 id="path548" />
              <path
                 class="st22"
                 d="m 499.33,373.54 c 0.18,0.31 0.28,0.63 0.33,0.97 -0.18,-0.29 -0.29,-0.61 -0.33,-0.97 m -7.52,0.25 c 0.02,0.25 0.03,0.51 0.02,0.76 -0.03,-0.25 -0.04,-0.51 -0.02,-0.76"
                 clip-path="url(#SVGID_8_)"
                 id="path550" />
              <path
                 class="st20"
                 d="m 463.89,291.6 c 16.59,20.09 29.28,49.78 40.99,73.68 -18.83,9 -41.28,10.63 -62.53,11.57 -13.68,0.6 -27.35,1.1 -41.03,1.49 -35.89,-68.59 -61.31,-161.1 -81.38,-235.52 1.72,-0.22 3.33,-0.4 4.67,-0.49 l 0.05,-0.03 c 0.17,0.15 0.33,0.3 0.49,0.44 l -0.42,0.47 a 300.657,300.657 0 0 0 54.93,71.49 c 27.47,26.35 60.01,47.53 84.23,76.9"
                 clip-path="url(#SVGID_8_)"
                 id="path552" />
              <path
                 class="st19"
                 d="m 415.24,445.35 c -4.03,0.33 -8.07,0.63 -12.11,0.9 l -0.03,-0.58 c -0.43,-14.04 -0.71,-26.41 -0.72,-39.26 3.89,13.1 8.18,26.09 12.86,38.94"
                 clip-path="url(#SVGID_8_)"
                 id="path554" />
              <path
                 class="st21"
                 d="m 403.09,445.67 0.03,0.58 c -18.28,1.23 -36.61,1.9 -54.86,2.44 -21.82,0.65 -43.96,1.06 -66.06,0.64 0.61,-20.17 1.14,-40.4 3.83,-60.22 0.33,0.01 0.67,-0.01 1.01,-0.1 1.88,-0.47 3.04,-2.51 2.92,-4.4 1.1,2.55 2.69,4.91 5.26,5.71 2.68,0.83 5.89,-1.82 5.7,-4.19 1.25,2.04 3.68,3.37 6.08,3.14 2.96,-0.28 5.53,-2.85 5.78,-5.81 0.06,2.96 2.64,5.67 5.6,5.85 2.96,0.19 5.86,-2.17 6.28,-5.11 0.8,2.78 3.6,4.84 6.48,4.78 2.89,-0.05 5.6,-2.22 6.3,-5.03 1.53,1.93 3.21,3.97 5.59,4.64 2.37,0.66 5.48,-0.9 5.38,-3.36 0.99,2.55 3.79,4.28 6.52,4.01 2.72,-0.26 5.14,-2.49 5.63,-5.19 0.62,2.66 3.37,4.64 6.1,4.4 2.72,-0.24 5.07,-2.68 5.22,-5.41 -0.14,2.82 3.42,4.62 6.14,3.87 2.72,-0.76 4.66,-3.1 6.41,-5.31 0.28,2.71 2.15,5.46 4.85,5.87 2.15,0.33 4.39,-1.48 4.64,-3.48 0.49,1.32 1.63,2.41 2.96,2.88 a 698.59,698.59 0 0 0 5.5,19.53 c 0.01,12.86 0.28,25.23 0.71,39.27"
                 clip-path="url(#SVGID_8_)"
                 id="path556" />
              <path
                 class="st19"
                 d="m 396.87,386.88 c -1.33,-0.47 -2.48,-1.56 -2.96,-2.88 -0.26,2 -2.5,3.8 -4.64,3.48 -2.7,-0.41 -4.56,-3.15 -4.85,-5.87 -1.76,2.22 -3.69,4.55 -6.41,5.31 -2.72,0.76 -6.28,-1.05 -6.14,-3.87 -0.15,2.73 -2.5,5.17 -5.22,5.41 -2.72,0.24 -5.47,-1.74 -6.1,-4.4 -0.49,2.69 -2.91,4.92 -5.63,5.18 -2.73,0.26 -5.53,-1.46 -6.52,-4.01 0.1,2.46 -3.01,4.02 -5.38,3.36 -2.37,-0.67 -4.06,-2.71 -5.59,-4.64 -0.69,2.8 -3.41,4.98 -6.3,5.03 -2.89,0.06 -5.69,-2.01 -6.48,-4.78 -0.42,2.94 -3.32,5.3 -6.28,5.11 -2.96,-0.18 -5.55,-2.89 -5.6,-5.85 -0.26,2.96 -2.83,5.53 -5.78,5.81 -2.4,0.22 -4.83,-1.1 -6.08,-3.15 -0.04,-0.53 -0.25,-1.04 -0.67,-1.51 0.15,0.54 0.37,1.04 0.67,1.51 0.19,2.37 -3.02,5.03 -5.7,4.19 -2.57,-0.8 -4.15,-3.16 -5.26,-5.71 -0.04,-0.75 -0.28,-1.47 -0.77,-2.06 l 0.06,-0.05 c 0.07,-1.12 0.15,-2.24 0.22,-3.36 37.29,0.54 74.58,0.27 111.85,-0.79 0.34,0.66 0.68,1.31 1.03,1.96 l -0.24,0.12 a 4,4 0 0 1 0.49,1.57 c 0.07,0.67 -0.03,1.37 -0.25,2.02 -0.49,1.44 -1.63,2.67 -3.12,3.03 -0.78,0.19 -1.6,0.12 -2.35,-0.16 m -2.96,-2.89 c 0.06,-0.51 -0.01,-1.04 -0.24,-1.55 -0.03,0.54 0.06,1.06 0.24,1.55"
                 clip-path="url(#SVGID_8_)"
                 id="path558" />
              <path
                 class="st21"
                 d="m 402.34,384.02 0.24,0.09 c -0.16,7.82 -0.23,15.13 -0.21,22.3 -1.93,-6.48 -3.76,-12.99 -5.5,-19.53 0.75,0.28 1.56,0.35 2.35,0.17 1.49,-0.36 2.63,-1.59 3.12,-3.03"
                 clip-path="url(#SVGID_8_)"
                 id="path560" />
              <path
                 class="st22"
                 d="m 393.67,382.44 c 0.24,0.51 0.31,1.03 0.24,1.55 -0.18,-0.49 -0.27,-1.01 -0.24,-1.55"
                 clip-path="url(#SVGID_8_)"
                 id="path562" />
              <path
                 class="st23"
                 d="m 319.94,142.82 c 20.07,74.43 45.49,166.93 81.38,235.52 -37.27,1.06 -74.56,1.33 -111.85,0.79 C 294.48,304.3 308,216.66 319.79,143 l -0.02,-0.15 v -0.01 a 0.88,0.88 0 0 1 0.17,-0.02"
                 clip-path="url(#SVGID_8_)"
                 id="path564" />
              <path
                 class="st20"
                 d="m 319.94,142.82 c -0.06,0 -0.11,0.01 -0.17,0.01 v 0.01 c -0.94,0.12 -1.92,0.25 -2.92,0.39 -1.1,0.15 -2.22,0.31 -3.31,0.46 -2.27,0.31 -4.42,0.58 -6.14,0.69 l -0.01,-0.06 c 3.36,-8.4 6.12,-17.04 8.25,-25.83 0.53,-2.19 1.03,-4.39 1.48,-6.59 1.12,10.01 3.62,19.87 7.41,29.21 l 0.12,1.2 -0.05,0.03 c -1.33,0.08 -2.94,0.26 -4.66,0.48"
                 clip-path="url(#SVGID_8_)"
                 id="path566" />
              <path
                 class="st20"
                 d="m 319.77,142.85 0.02,0.15 c -11.79,73.66 -25.31,161.3 -30.32,236.14 -26.52,-0.37 -53.02,-1.15 -79.52,-2.34 -0.71,-0.03 -1.42,-0.06 -2.13,-0.1 30.91,-77 70.82,-159.11 109.2,-232.32 l -0.16,-1.15 c 0.99,-0.13 1.96,-0.27 2.91,-0.38"
                 clip-path="url(#SVGID_8_)"
                 id="path568" />
              <path
                 class="st23"
                 d="m 316.85,143.23 0.16,1.15 c -38.38,73.21 -78.29,155.32 -109.2,232.32 -14.9,-0.69 -29.9,-1.6 -44.48,-4.48 -3.23,-0.63 -6.46,-1.37 -9.64,-2.21 -2.2,-0.58 -4.39,-1.22 -6.56,-1.92 -0.8,-0.26 -1.6,-0.54 -2.4,-0.84 -2.69,-1.01 -5.39,-2.25 -8.11,-3.68 -3.26,-1.71 -6.52,-3.69 -9.74,-5.83 -2.08,-1.39 -4.14,-2.85 -6.17,-4.35 64.07,-68.84 128.77,-140.86 192.83,-209.7 1.09,-0.14 2.21,-0.3 3.31,-0.46"
                 clip-path="url(#SVGID_8_)"
                 id="path570" />
              <path
                 class="st20"
                 d="m 100.95,332.45 c 73.91,-60.82 137.39,-121.41 206.35,-188.07 0.03,0 0.08,-0.01 0.11,-0.01 1.72,-0.11 3.87,-0.38 6.14,-0.69 -64.06,68.84 -128.76,140.86 -192.83,209.7 -8.21,-6.07 -15.93,-12.88 -22.37,-18.79 0.86,-0.71 1.73,-1.42 2.6,-2.14"
                 clip-path="url(#SVGID_8_)"
                 id="path572" />
              <path
                 class="st22"
                 d="m 300.24,384.62 c 0.42,0.47 0.62,0.98 0.67,1.51 -0.29,-0.47 -0.52,-0.98 -0.67,-1.51"
                 clip-path="url(#SVGID_8_)"
                 id="path574" />
              <path
                 class="st19"
                 d="m 288.54,384.21 1.08,-0.43 c 0.11,0.28 0.22,0.56 0.34,0.83 0.12,1.89 -1.03,3.93 -2.92,4.4 -0.33,0.08 -0.67,0.11 -1.01,0.1 0.16,-1.19 0.33,-2.37 0.51,-3.55 0.15,-1.05 1.78,-1.89 2,-1.35"
                 clip-path="url(#SVGID_8_)"
                 id="path576" />
              <path
                 class="st22"
                 d="m 289.95,384.61 c -0.12,-0.27 -0.23,-0.55 -0.34,-0.83 -0.17,-0.43 -0.32,-0.86 -0.47,-1.28 0.01,0.01 0.03,0.03 0.03,0.05 0.5,0.59 0.74,1.31 0.78,2.06"
                 clip-path="url(#SVGID_8_)"
                 id="path578" />
              <path
                 class="st19"
                 d="m 206.97,382.98 c -0.03,-0.09 -0.06,-0.17 -0.09,-0.26 0.49,-1.08 0.58,-2.28 0.08,-3.41 -0.45,1.1 -0.43,2.3 -0.08,3.41 -0.1,0.24 -0.22,0.47 -0.36,0.68 l -0.17,0.17 c 0.08,-1.29 0.17,-2.57 0.24,-3.81 0.4,-1.02 0.81,-2.03 1.22,-3.05 0.71,0.03 1.42,0.06 2.13,0.1 26.5,1.19 53,1.96 79.52,2.34 -0.08,1.12 -0.15,2.24 -0.22,3.36 l -0.06,0.05 c -0.01,-0.01 -0.02,-0.04 -0.03,-0.05 0.15,0.42 0.3,0.85 0.47,1.28 l -1.08,0.43 c -0.22,-0.54 -1.85,0.3 -2,1.35 -0.17,1.18 -0.35,2.36 -0.51,3.55 -2.3,-0.12 -4.42,-2.51 -3.94,-4.84 -0.42,2.75 -3.21,4.91 -5.98,4.63 -2.77,-0.28 -5.07,-2.95 -4.95,-5.73 -0.44,2.53 -2.87,4.55 -5.44,4.53 -2.35,-0.03 -4.55,-1.78 -5.2,-4.02 -0.02,-0.22 -0.07,-0.42 -0.15,-0.63 0.03,0.21 0.08,0.42 0.15,0.63 0.31,2.43 -2.45,4.76 -5,4.41 -2.78,-0.37 -4.82,-2.89 -5.74,-5.53 -0.17,2.78 -2.87,5.14 -5.64,4.94 -2.78,-0.21 -5.11,-2.94 -4.86,-5.72 -1.72,1.81 -3.44,3.62 -5.16,5.44 -2.32,-1.46 -4.04,-3.85 -4.7,-6.51 -0.32,2.97 -3.17,5.44 -6.15,5.35 -2.85,-0.08 -5.41,-2.5 -5.75,-5.31 0,-0.14 -0.01,-0.28 -0.03,-0.42 0.01,0.14 0.01,0.28 0.03,0.42 0.17,3.17 -2.83,6.23 -6.03,5.94 -2.08,-0.21 -3.81,-1.8 -4.52,-3.72"
                 clip-path="url(#SVGID_8_)"
                 id="path580" />
              <path
                 class="st19"
                 d="m 286.03,389.11 c -2.69,19.82 -3.21,40.05 -3.83,60.22 -27.14,-0.52 -54.23,-2.3 -80.64,-6.49 l 0.21,-1.33 c 1.01,-17.28 3.35,-39.73 4.57,-57.84 0.06,-0.09 0.12,-0.17 0.17,-0.26 l 0.45,-0.42 c 0.72,1.92 2.44,3.51 4.51,3.7 3.2,0.3 6.21,-2.76 6.03,-5.94 0.34,2.81 2.91,5.23 5.75,5.31 2.99,0.1 5.83,-2.37 6.15,-5.35 0.66,2.66 2.38,5.05 4.7,6.5 1.72,-1.81 3.44,-3.62 5.16,-5.44 -0.25,2.78 2.08,5.51 4.86,5.72 2.78,0.2 5.48,-2.17 5.64,-4.94 0.92,2.64 2.96,5.15 5.74,5.53 2.55,0.35 5.31,-1.98 5,-4.41 0.65,2.24 2.85,3.99 5.2,4.02 2.57,0.03 5.01,-2 5.44,-4.53 -0.12,2.78 2.18,5.45 4.95,5.73 2.77,0.28 5.56,-1.88 5.98,-4.63 -0.46,2.33 1.66,4.72 3.96,4.85"
                 clip-path="url(#SVGID_8_)"
                 id="path582" />
              <path
                 class="st18"
                 d="m 268.31,546.39 c 3.96,-4.15 8.77,-7.53 14.12,-6.37 a 69.157,69.157 0 0 1 -11.81,11.06 l -1.88,-0.8 c -1.15,0.65 -2.66,0.69 -3.75,-0.08 1.03,-1.27 2.14,-2.58 3.32,-3.81"
                 clip-path="url(#SVGID_8_)"
                 id="path584" />
              <path
                 class="st22"
                 d="m 260.52,383.68 c -0.07,-0.21 -0.11,-0.42 -0.15,-0.63 0.08,0.21 0.13,0.41 0.15,0.63 m -43.05,-3.35 c 0.02,0.14 0.03,0.28 0.03,0.42 -0.02,-0.14 -0.02,-0.28 -0.03,-0.42"
                 clip-path="url(#SVGID_8_)"
                 id="path586" />
              <path
                 class="st19"
                 d="m 196.01,381.1 c -0.58,1.83 -2.46,3.42 -4.46,3.3 -2.66,-0.17 -4.73,-2.56 -5.26,-5.19 0.03,-0.37 -0.01,-0.76 -0.13,-1.14 0.01,0.38 0.06,0.76 0.13,1.14 -0.15,2.47 -3.03,4.6 -5.62,4.08 -2.8,-0.56 -4.73,-3.28 -5.24,-6.12 -0.01,-0.17 -0.03,-0.35 -0.08,-0.52 0.02,0.17 0.05,0.35 0.08,0.52 0.22,2.98 -3.66,5.33 -6.63,4.35 -2.87,-0.95 -4.65,-3.77 -5.57,-6.69 -0.02,-0.28 -0.1,-0.56 -0.24,-0.84 l 0.35,-1.77 c 14.58,2.87 29.58,3.79 44.48,4.48 -0.41,1.02 -0.82,2.03 -1.22,3.05 -0.08,1.24 -0.16,2.52 -0.24,3.81 -0.53,0.51 -1.03,1.04 -1.52,1.59 -1.01,0.7 -2.24,1.08 -3.47,0.92 -2.59,-0.31 -4.6,-2.46 -5.36,-4.97 m 0,-0.01 c 0.31,-0.94 0.26,-1.94 -0.3,-2.82 -0.09,0.94 0.03,1.91 0.3,2.82"
                 clip-path="url(#SVGID_8_)"
                 id="path588" />
              <path
                 class="st22"
                 d="m 206.95,379.31 c 0.5,1.12 0.41,2.33 -0.08,3.41 -0.35,-1.11 -0.37,-2.31 0.08,-3.41 m 0.02,3.67 c -0.15,0.14 -0.31,0.28 -0.45,0.42 0.14,-0.22 0.26,-0.44 0.36,-0.68 0.03,0.09 0.05,0.17 0.09,0.26 m -0.62,0.59 0.17,-0.17 -0.17,0.26 a 0.139,0.139 0 0 1 0,-0.09"
                 clip-path="url(#SVGID_8_)"
                 id="path590" />
              <path
                 class="st22"
                 d="m 206.35,383.57 c -0.01,0.03 -0.01,0.06 -0.01,0.1 -0.4,0.58 -0.92,1.09 -1.51,1.49 0.49,-0.56 0.99,-1.09 1.52,-1.59"
                 clip-path="url(#SVGID_8_)"
                 id="path592" />
              <path
                 class="st21"
                 d="m 204.83,385.16 c 0.59,-0.4 1.11,-0.92 1.51,-1.49 -1.22,18.11 -3.56,40.56 -4.57,57.84 l -0.21,1.33 a 394.75,394.75 0 0 1 -26.25,-5.05 517.216,517.216 0 0 0 20.84,-38.22 c 2.48,-5.03 5.03,-10.27 8.68,-14.41"
                 clip-path="url(#SVGID_8_)"
                 id="path594" />
              <path
                 class="st21"
                 d="m 204.83,385.16 c -3.65,4.14 -6.2,9.39 -8.67,14.4 a 519.249,519.249 0 0 1 -20.84,38.22 c -19.63,-4.48 -38.73,-10.57 -57.04,-18.74 l 0.19,-0.44 c 0.47,-18.83 1.18,-35.25 1.65,-54.09 0.01,-0.37 0.13,-0.78 0.32,-1.15 0.06,0.26 0.1,0.52 0.16,0.78 2.44,-1.32 4.58,-3.21 6.19,-5.47 0.03,3.1 0.25,6.62 2.62,8.62 2.1,1.78 6.17,0.53 6.44,-1.86 0.28,2.46 1.03,4.98 3.07,6.3 2.3,1.47 6.3,-0.39 5.59,-3.03 0.61,2.66 1.9,5.53 4.47,6.42 2.15,0.74 4.86,-1.16 4.86,-3.15 0.74,2.37 1.79,4.75 3.96,5.83 2.26,1.12 5.62,-0.78 5.43,-2.98 0.92,2.92 2.7,5.73 5.57,6.69 2.97,0.98 6.85,-1.37 6.63,-4.35 0.51,2.83 2.44,5.56 5.24,6.12 2.58,0.51 5.47,-1.61 5.62,-4.08 0.53,2.63 2.6,5.03 5.26,5.19 2.01,0.12 3.89,-1.46 4.46,-3.3 0.76,2.51 2.76,4.66 5.35,4.98 1.23,0.16 2.46,-0.21 3.47,-0.91"
                 clip-path="url(#SVGID_8_)"
                 id="path596" />
              <path
                 class="st22"
                 d="m 195.71,378.27 c 0.56,0.87 0.6,1.88 0.3,2.82 -0.27,-0.91 -0.39,-1.88 -0.3,-2.82 m -9.55,-0.21 c 0.12,0.38 0.16,0.76 0.13,1.14 -0.08,-0.37 -0.12,-0.76 -0.13,-1.14 m -10.73,-0.89 c -0.03,-0.17 -0.06,-0.35 -0.08,-0.52 0.05,0.17 0.07,0.34 0.08,0.52"
                 clip-path="url(#SVGID_8_)"
                 id="path598" />
              <path
                 class="st19"
                 d="m 163.34,372.22 -0.35,1.77 c 0.07,0.28 0.15,0.56 0.24,0.84 0.19,2.2 -3.17,4.1 -5.43,2.98 -2.17,-1.08 -3.23,-3.46 -3.96,-5.83 0,-0.39 -0.11,-0.8 -0.35,-1.18 l 0.21,-0.79 c 3.18,0.85 6.4,1.58 9.64,2.21"
                 clip-path="url(#SVGID_8_)"
                 id="path600" />
              <path
                 class="st22"
                 d="m 163.23,374.83 c -0.09,-0.28 -0.17,-0.56 -0.24,-0.84 0.15,0.28 0.22,0.57 0.24,0.84"
                 clip-path="url(#SVGID_8_)"
                 id="path602" />
              <path
                 class="st19"
                 d="m 153.69,370.01 -0.21,0.79 c 0.11,0.39 0.23,0.78 0.35,1.18 0,1.99 -2.71,3.89 -4.86,3.15 -2.58,-0.89 -3.86,-3.76 -4.47,-6.42 l 0.22,-1.46 c 0.8,0.3 1.6,0.58 2.4,0.84 2.19,0.7 4.37,1.34 6.57,1.92"
                 clip-path="url(#SVGID_8_)"
                 id="path604" />
              <path
                 class="st22"
                 d="m 153.49,370.8 c 0.24,0.38 0.35,0.78 0.35,1.18 -0.12,-0.39 -0.24,-0.79 -0.35,-1.18"
                 clip-path="url(#SVGID_8_)"
                 id="path606" />
              <path
                 class="st19"
                 d="m 144.73,367.25 -0.22,1.46 c 0.72,2.64 -3.29,4.5 -5.59,3.03 -2.04,-1.31 -2.79,-3.84 -3.07,-6.3 0.03,-0.3 0.01,-0.62 -0.09,-0.95 l 0.86,-0.92 c 2.72,1.43 5.43,2.67 8.11,3.68"
                 clip-path="url(#SVGID_8_)"
                 id="path608" />
              <path
                 class="st18"
                 d="m 139.19,473.52 c 3.46,0.32 3.98,5.3 2.73,8.55 -0.36,0.94 -0.78,1.92 -1.15,2.92 -2.19,-1.29 -4.32,-2.83 -5.23,-5.15 -1.06,-2.72 0.75,-6.6 3.65,-6.32"
                 clip-path="url(#SVGID_8_)"
                 id="path610" />
              <path
                 class="st19"
                 d="m 136.62,363.57 -0.86,0.92 c 0.02,0.31 0.05,0.63 0.09,0.95 -0.27,2.39 -4.35,3.64 -6.44,1.86 -2.37,-2.01 -2.58,-5.52 -2.62,-8.62 l 0.09,-0.94 c 3.23,2.14 6.48,4.12 9.74,5.83"
                 clip-path="url(#SVGID_8_)"
                 id="path612" />
              <path
                 class="st22"
                 d="m 135.76,364.49 c 0.1,0.33 0.12,0.65 0.09,0.95 -0.04,-0.32 -0.07,-0.64 -0.09,-0.95"
                 clip-path="url(#SVGID_8_)"
                 id="path614" />
              <path
                 class="st19"
                 d="m 120.44,363.37 c -0.34,-1.69 -0.69,-3.4 -1.03,-5.1 0.34,-0.82 0.26,-1.69 -0.48,-2.36 0.16,0.78 0.32,1.58 0.48,2.36 -0.65,1.62 -2.89,3.01 -4.67,2.16 -2.67,-1.28 -3.33,-4.83 -3.02,-7.78 -0.62,2.5 -1.97,4.82 -3.84,6.6 -4.92,-5.92 -2.16,-9.35 -0.98,-11.89 0.34,-0.43 0.51,-0.96 0.46,-1.61 0,0.5 -0.19,1.03 -0.46,1.61 -1.26,1.57 -4.73,1.76 -7.18,1.81 -2.01,-4.03 -0.72,-8.67 -1.96,-12.16 0.14,-0.82 0.27,-1.64 0.4,-2.45 l 0.17,0.03 c 6.44,5.91 14.17,12.72 22.37,18.79 2.03,1.5 4.1,2.96 6.17,4.35 l -0.09,0.94 a 18.374,18.374 0 0 1 -6.19,5.47 c -0.04,-0.25 -0.09,-0.51 -0.15,-0.77"
                 clip-path="url(#SVGID_8_)"
                 id="path616" />
              <path
                 class="st19"
                 d="m 119.41,358.27 c 0.35,1.7 0.69,3.4 1.03,5.1 -0.19,0.37 -0.31,0.77 -0.32,1.14 -0.47,18.83 -1.18,35.25 -1.65,54.09 l -0.19,0.44 c -9.41,-4.2 -18.62,-8.95 -27.57,-14.33 -0.59,-22.25 3.49,-45.6 7.07,-67.68 1.24,3.48 -0.06,8.12 1.96,12.15 2.44,-0.05 5.92,-0.24 7.18,-1.81 -1.18,2.54 -3.94,5.97 0.98,11.89 1.87,-1.78 3.22,-4.1 3.84,-6.6 -0.31,2.95 0.35,6.49 3.02,7.78 1.76,0.84 4,-0.55 4.65,-2.17"
                 clip-path="url(#SVGID_8_)"
                 id="path618" />
              <path
                 class="st22"
                 d="m 118.93,355.91 c 0.74,0.67 0.82,1.54 0.48,2.36 -0.16,-0.78 -0.32,-1.57 -0.48,-2.36 m -11.57,-10.16 c 0.06,0.65 -0.12,1.18 -0.46,1.61 0.28,-0.57 0.46,-1.11 0.46,-1.61 m -6.41,-13.3 c -0.87,0.72 -1.74,1.43 -2.61,2.15 l -0.17,-0.03 0.04,-0.27 c 0.23,-1.43 2.43,-2.64 2.74,-1.85"
                 clip-path="url(#SVGID_8_)"
                 id="path620" />
              <path
                 class="st18"
                 d="m -78.88,420.33 c -0.87,0.41 -1.74,0.82 -2.6,1.24 l -1.08,0.26 c -1.71,-1.53 -3.25,-3.29 -3.5,-5.52 -0.31,-2.74 2.87,-5.68 5.12,-4.1 -0.34,2.84 0.47,5.75 2.06,8.12"
                 clip-path="url(#SVGID_8_)"
                 id="path622" />
            </g>
          </g>
          <path
             class="st25"
             d="m 100.96,332.93 c 0.05,-0.21 0.04,-0.36 -0.01,-0.48 -0.31,-0.79 -2.51,0.42 -2.74,1.85 l -0.04,0.27 c -0.13,0.81 -0.26,1.63 -0.4,2.45 -3.58,22.08 -7.66,45.43 -7.07,67.68 v 0.01 M 324.65,142.3 c 0.17,0.15 0.33,0.3 0.49,0.44 7.27,6.55 9.99,7.68 14.79,7.89 10.96,0.48 19.96,-1.01 29.32,-2.9 4.28,-0.86 8.63,-1.81 13.28,-2.69 14.9,-2.83 29.72,-6.08 44.52,-9.38 10.04,-2.23 20.07,-4.48 30.12,-6.64 5.28,-1.13 10.22,-2.1 14.9,-3.04 16.65,-3.34 30.07,-6.3 44.17,-14.95 4.19,-2.58 8.45,-5.65 12.86,-9.39 l 0.35,-0.29 m -10.42,255.46 c 8.68,-5.43 18.67,-11.05 29,-16.72 13.12,-7.21 26.78,-14.51 38.98,-21.58 3.99,-2.31 7.82,-4.6 11.43,-6.85 8.34,-5.21 16.7,-10.44 24.79,-16.02 8.17,-5.64 16.07,-11.64 23.39,-18.35 3.69,-3.38 7.23,-6.96 10.55,-10.73 7.72,-8.76 14.26,-18.56 18.66,-29.25 a 80.16,80.16 0 0 0 2.46,-6.76 c 0.22,-0.68 0.43,-1.37 0.62,-2.06 m 9.57,-3.71 c -0.15,0.22 -1.51,2.51 -2.85,4.99 -0.16,0.29 -0.32,0.59 -0.47,0.88 -1.23,2.32 -2.33,4.64 -2.3,5.37 0.01,0.26 0.03,0.51 0.04,0.76 1.29,23.74 5.06,31.61 6.93,51.68 0.24,2.62 0.46,5.46 0.63,8.57 0.01,0.26 0.03,0.51 0.04,0.77"
             clip-path="url(#SVGID_4_)"
             id="path628"
             transform="translate(-173.6972,3.0765847)" />
          <path
             class="st25"
             d="m 688.41,224.91 c 0.04,-0.07 0.06,-0.12 0.07,-0.14 l 0.01,-0.01 m 2.14,72.92 c 0,0.01 -0.01,0.01 -0.01,0.02 -0.03,0.04 -0.06,0.09 -0.09,0.13 -5.21,7.7 -10.79,15.34 -16.71,22.83 -9.83,12.44 -20.6,24.46 -32.17,35.69 -2.85,2.77 -5.76,5.5 -8.72,8.16 -8.64,7.8 -17.67,15.14 -27.06,21.85 -13.95,9.99 -28.68,18.61 -44.01,25.38 -10.43,4.62 -21.14,8.37 -32.07,11.11 -0.81,0.21 -1.62,0.4 -2.43,0.6 M 98.34,334.6 c 6.44,5.91 14.17,12.72 22.37,18.79 2.03,1.5 4.1,2.96 6.17,4.35 3.22,2.15 6.48,4.12 9.74,5.83 2.71,1.43 5.42,2.67 8.11,3.68 0.8,0.3 1.6,0.58 2.4,0.84 2.17,0.7 4.36,1.34 6.56,1.92 3.19,0.85 6.41,1.58 9.64,2.21 14.58,2.87 29.58,3.79 44.48,4.48 0.71,0.03 1.42,0.06 2.13,0.1 26.5,1.19 53,1.96 79.52,2.34 37.29,0.54 74.58,0.27 111.85,-0.79 13.68,-0.39 27.36,-0.89 41.03,-1.49 21.26,-0.94 43.7,-2.58 62.53,-11.57 4.91,-2.33 9.57,-5.17 13.9,-8.63 M 90.36,404.5 c 0.11,0.07 0.23,0.14 0.34,0.2 8.96,5.38 18.16,10.14 27.57,14.33 18.31,8.18 37.42,14.26 57.04,18.74 8.66,1.99 17.41,3.65 26.25,5.05 26.41,4.19 53.5,5.97 80.64,6.49 22.1,0.42 44.24,0.01 66.06,-0.64 18.25,-0.54 36.58,-1.21 54.86,-2.44 4.04,-0.26 8.07,-0.56 12.11,-0.9 30.7,-2.5 61.13,-6.85 90.59,-15.09 7.24,-2.03 14.42,-4.28 21.53,-6.81 M 307.4,144.32 c 3.36,-8.4 6.12,-17.04 8.25,-25.83 0.53,-2.19 1.03,-4.39 1.48,-6.59 1.12,10.01 3.62,19.87 7.41,29.21"
             clip-path="url(#SVGID_4_)"
             id="path630"
             transform="translate(-173.6972,3.0765847)" />
          <path
             class="st25"
             d="m 315.58,122.85 c 0.02,-1.45 0.05,-2.9 0.07,-4.35 0.28,-16.79 0.55,-33.58 0.82,-50.36 m -9.18,76.25 c 0.03,0 0.08,-0.01 0.11,-0.01 1.72,-0.11 3.87,-0.38 6.14,-0.69 1.09,-0.15 2.21,-0.31 3.31,-0.46 0.99,-0.14 1.97,-0.27 2.92,-0.39 v -0.01 c 0.06,-0.01 0.11,-0.01 0.17,-0.01 1.72,-0.22 3.33,-0.4 4.67,-0.49 M 541.63,39.92 c -3.96,15.1 -5.21,30.91 -3.65,46.45"
             clip-path="url(#SVGID_4_)"
             id="path632"
             transform="translate(-173.6972,3.0765847)" />
          <path
             class="st25"
             d="m 539.4,80.96 c -0.05,0.24 -0.1,0.49 -0.16,0.74 -1.54,7.19 -4.82,14 -9.47,19.7 4.5,-0.38 8.98,-0.96 13.42,-1.75 1.1,-0.19 2.19,-0.4 3.28,-0.61 -2.56,-5.19 -6.19,-11.59 -7.23,-17.34 l -0.08,-0.48 m -231.87,63.17 c -68.96,66.66 -132.44,127.25 -206.35,188.07 -0.87,0.72 -1.74,1.43 -2.61,2.15"
             clip-path="url(#SVGID_4_)"
             id="path634"
             transform="translate(-173.6972,3.0765847)" />
          <path
             class="st25"
             d="m 542.63,99.26 c 1.71,-0.78 -0.1,-4.56 -0.69,-2.78 -0.57,1.72 -0.72,1.87 0.69,2.79 0.05,0.03 0.1,0.07 0.16,0.1 0.14,0.09 0.27,0.17 0.41,0.26 7.17,4.57 14.34,9.14 21.51,13.7 14.63,9.34 29.3,18.69 42.94,29.44 29.19,23.01 53.47,52.28 85.01,71.95 a 203.716,203.716 0 0 0 -13.44,17.48 c -1.15,1.68 -2.28,3.37 -3.38,5.08 -3.08,4.79 -5.96,9.71 -8.63,14.74 M 313.54,143.69 c -64.06,68.84 -128.76,140.86 -192.83,209.7 l -0.03,0.03 M 317.01,144.39 c -38.38,73.21 -78.29,155.31 -109.2,232.32 -0.41,1.02 -0.82,2.03 -1.22,3.05 -0.19,0.47 -0.37,0.94 -0.56,1.41 M 319.79,143 c -11.79,73.66 -25.31,161.3 -30.32,236.14 -0.08,1.12 -0.15,2.24 -0.22,3.36 m 30.69,-239.69 v 0.01 c 20.07,74.43 45.49,166.93 81.38,235.52 0.34,0.66 0.68,1.31 1.03,1.96 a 0.3,0.3 0 0 0 0.06,0.11 M 122.35,362.53 c -0.45,-0.9 -1.41,-0.17 -1.91,0.83 -0.19,0.37 -0.31,0.77 -0.32,1.15 -0.47,18.83 -1.18,35.25 -1.65,54.09"
             clip-path="url(#SVGID_4_)"
             id="path636"
             transform="translate(-173.6972,3.0765847)" />
          <path
             class="st25"
             d="m 206.63,379.03 c -0.01,0.24 -0.03,0.49 -0.04,0.73 -0.08,1.24 -0.16,2.52 -0.24,3.81 -0.01,0.03 -0.01,0.06 -0.01,0.1 -1.22,18.11 -3.56,40.56 -4.57,57.84 m 87.97,-51.25 c -0.18,19.47 -0.37,38.94 -0.55,58.41 m 113.39,-64.56 c -0.16,7.82 -0.23,15.13 -0.21,22.3 0.01,12.85 0.29,25.23 0.72,39.26 m 103.19,-76.92 c -0.07,1.6 -0.14,3.23 -0.2,4.91 -0.03,0.68 -0.06,1.38 -0.08,2.08 -0.62,17.33 -0.81,38.35 -0.17,54.53 0.01,0.04 0.01,0.09 0.01,0.13 M 324.72,143.21 a 300.857,300.857 0 0 0 54.93,71.49 c 27.48,26.35 60.01,47.54 84.24,76.9 16.59,20.09 29.28,49.78 40.99,73.68 0.55,1.13 1.1,2.24 1.65,3.33 M 370.47,149.25 c 30.81,24.17 57.96,45.57 88.77,69.75 9.5,7.46 19.03,14.93 27.65,23.38 27.58,27.05 44.67,62.75 61.14,97.72 0.11,0.22 0.22,0.45 0.32,0.67 M 427.33,136.96 c 28.71,28.58 58.82,55.74 90.2,81.37 7.73,6.31 15.56,12.57 22.21,20 5.87,6.57 10.71,13.97 15.36,21.45 10.52,16.95 23.3,40.69 31.91,58.73 0.01,0.04 0.03,0.08 0.06,0.12 M 471.82,125.64 c 0.08,0.11 0.16,0.23 0.24,0.34 21.96,30.57 54.32,55.94 82.76,80.58 28.54,24.72 56.13,52.95 68.18,88.75 M 531.74,130.68 c 0.71,0.78 1.42,1.56 2.13,2.33 31.06,33.53 70.29,58.21 97.81,95.7 9.88,13.45 15.1,24.8 25.48,37.86 l 0.01,0.01 M 516.25,111.06 c 5.63,8.07 11.34,14.61 17.7,21.87 m -5.48,-31.9 c 0.21,0.21 0.41,0.42 0.62,0.61 22.15,22.12 51.95,35.97 75.32,57.33 30.75,28.1 55.16,38.12 73.87,71.58 0.31,0.56 0.62,1.11 0.92,1.68 0.06,0.1 0.12,0.22 0.18,0.33 M 552.67,350.21 c 0.03,0.22 0.06,0.43 0.08,0.65 l 0.12,0.85 c 2.65,20.06 5.64,40.08 8.98,60.03 0.01,0.04 0.01,0.08 0.02,0.12 m 33.72,-81.56 c 0.14,0.42 0.28,0.85 0.4,1.27 5.54,17.65 2.91,37.33 9.72,54.57 m 23.7,-86.95 c 2.74,17.61 8.55,38.54 11.28,56.15"
             clip-path="url(#SVGID_4_)"
             id="path638"
             transform="translate(-173.6972,3.0765847)" />
          <path
             class="st25"
             d="m 629.24,298.74 0.01,0.02 c 0.01,0.01 0.01,0.02 0.01,0.03 -0.01,-0.03 0.01,0.02 0.06,0.17 0.02,0.06 0.05,0.13 0.08,0.22 0.04,0.1 0.08,0.21 0.08,0.21 0.03,0.08 0.06,0.15 0.07,0.18 v 0.01 c 0.01,0.04 0.02,0.06 0.02,0.06 m 33.85,-27.52 c 0.12,0.6 0.25,1.19 0.37,1.77 3.53,16.65 6.45,29.88 10.02,46.77 0.01,0.02 0.01,0.03 0.01,0.06 m 20.69,-102.57 c -0.94,-0.94 -2.41,-1.34 -3.7,-0.99 0.04,0.94 0.09,1.89 0.15,2.83 0.09,1.8 0.21,3.6 0.34,5.4 1.3,18.05 4.21,35.98 8.71,53.52 0.35,1.37 0.72,2.81 0.4,4.2 -0.28,1.24 -1.08,2.3 -1.85,3.31 -1.24,1.62 -2.47,3.24 -3.71,4.86 -1.46,1.92 -2.93,3.84 -4.39,5.75 -1.15,1.51 -2.3,3.02 -3.46,4.53 M 393.91,384 c 0.49,1.32 1.63,2.41 2.96,2.88 0.75,0.28 1.56,0.35 2.35,0.17 1.49,-0.36 2.62,-1.59 3.12,-3.03 0.22,-0.65 0.32,-1.35 0.25,-2.02 a 4,4 0 0 0 -0.49,-1.57 m -8.19,3.56 c 0.06,-0.51 -0.01,-1.04 -0.24,-1.55 -0.03,0.54 0.06,1.06 0.24,1.55 z m 0,0 V 384"
             clip-path="url(#SVGID_4_)"
             id="path640"
             transform="translate(-173.6972,3.0765847)" />
          <path
             class="st25"
             d="m 300.91,386.12 c 1.25,2.04 3.68,3.37 6.08,3.14 2.96,-0.28 5.53,-2.85 5.78,-5.81 0.06,2.96 2.64,5.67 5.6,5.85 2.96,0.19 5.86,-2.17 6.28,-5.11 0.8,2.78 3.6,4.84 6.48,4.78 2.89,-0.05 5.6,-2.22 6.3,-5.03 1.53,1.93 3.21,3.97 5.59,4.64 2.37,0.66 5.48,-0.9 5.38,-3.36 0.99,2.55 3.79,4.28 6.52,4.01 2.72,-0.26 5.14,-2.49 5.63,-5.19 0.62,2.66 3.37,4.64 6.1,4.4 2.72,-0.24 5.07,-2.68 5.22,-5.41 -0.14,2.82 3.42,4.62 6.14,3.87 2.72,-0.76 4.66,-3.1 6.41,-5.31 0.28,2.71 2.15,5.46 4.85,5.87 2.15,0.33 4.39,-1.48 4.64,-3.48 m -93,2.14 c -0.04,-0.53 -0.25,-1.04 -0.67,-1.51 0.15,0.54 0.38,1.05 0.67,1.51 z"
             clip-path="url(#SVGID_4_)"
             id="path642"
             transform="translate(-173.6972,3.0765847)" />
          <path
             class="st25"
             d="m 260.52,383.68 c 0.65,2.24 2.85,3.99 5.2,4.02 2.57,0.03 5.01,-2 5.44,-4.53 -0.12,2.78 2.18,5.45 4.95,5.73 2.77,0.28 5.56,-1.88 5.98,-4.63 -0.49,2.33 1.63,4.71 3.94,4.84 0.33,0.01 0.67,-0.01 1.01,-0.1 1.88,-0.47 3.04,-2.51 2.92,-4.4 -0.04,-0.75 -0.28,-1.47 -0.77,-2.06 -0.01,-0.01 -0.02,-0.04 -0.03,-0.05 0.15,0.42 0.3,0.85 0.47,1.28 0.11,0.28 0.22,0.56 0.34,0.83 1.1,2.55 2.69,4.91 5.26,5.71 2.68,0.83 5.89,-1.82 5.7,-4.19 m -40.41,-2.45 c -0.02,-0.22 -0.07,-0.42 -0.15,-0.63 0.04,0.21 0.08,0.42 0.15,0.63 z m -43.01,-2.93 c 0.34,2.81 2.91,5.23 5.75,5.31 2.99,0.1 5.83,-2.37 6.15,-5.35 0.66,2.66 2.38,5.05 4.7,6.5 1.72,-1.81 3.44,-3.62 5.16,-5.44 -0.25,2.78 2.08,5.51 4.86,5.72 2.78,0.2 5.48,-2.17 5.64,-4.94 0.92,2.64 2.96,5.15 5.74,5.53 2.55,0.35 5.31,-1.98 5,-4.41 m -43,-2.92 c 0,-0.14 -0.01,-0.28 -0.03,-0.42 0,0.14 0,0.28 0.03,0.42 z"
             clip-path="url(#SVGID_4_)"
             id="path644"
             transform="translate(-173.6972,3.0765847)" />
          <path
             class="st25"
             d="m 206.88,382.72 c 0.03,0.09 0.06,0.17 0.09,0.26 0.72,1.92 2.44,3.51 4.51,3.7 3.2,0.3 6.21,-2.76 6.03,-5.94 m -10.63,1.98 c 0.49,-1.08 0.58,-2.28 0.08,-3.41 -0.46,1.1 -0.44,2.3 -0.08,3.41 z m -10.87,-1.62 c 0.76,2.51 2.76,4.66 5.35,4.98 1.23,0.15 2.46,-0.22 3.47,-0.92 0.59,-0.4 1.11,-0.92 1.51,-1.49 0.06,-0.09 0.12,-0.17 0.17,-0.26 0.14,-0.21 0.26,-0.44 0.36,-0.68 m -10.86,-1.64 c 0.31,-0.94 0.26,-1.94 -0.3,-2.82 -0.09,0.94 0.03,1.91 0.3,2.82 z m 0,0 v 0.01 m -9.72,-1.9 c 0.53,2.63 2.6,5.03 5.26,5.19 2.01,0.12 3.89,-1.46 4.46,-3.3 m -9.72,-1.89 c 0.03,-0.37 -0.01,-0.76 -0.13,-1.14 0.01,0.38 0.05,0.77 0.13,1.14 z m -10.86,-2.03 c 0.51,2.83 2.44,5.56 5.24,6.12 2.58,0.51 5.47,-1.61 5.62,-4.08 m -10.86,-2.04 c -0.01,-0.17 -0.03,-0.35 -0.08,-0.52 0.02,0.17 0.05,0.34 0.08,0.52 z"
             clip-path="url(#SVGID_4_)"
             id="path646"
             transform="translate(-173.6972,3.0765847)" />
          <path
             class="st25"
             d="m 119.41,358.27 c 0.35,1.7 0.69,3.4 1.03,5.1 0.06,0.26 0.1,0.52 0.16,0.78 2.44,-1.32 4.58,-3.21 6.19,-5.47 0.03,3.1 0.25,6.62 2.62,8.62 2.1,1.78 6.17,0.53 6.44,-1.86 0.03,-0.3 0.01,-0.62 -0.09,-0.95 0.02,0.31 0.05,0.63 0.09,0.95 0.28,2.46 1.03,4.99 3.07,6.3 2.3,1.47 6.3,-0.39 5.59,-3.03 0.61,2.66 1.9,5.53 4.47,6.42 2.15,0.74 4.86,-1.16 4.86,-3.15 0,-0.39 -0.11,-0.8 -0.35,-1.18 0.11,0.39 0.23,0.78 0.35,1.18 0.74,2.37 1.79,4.75 3.96,5.83 2.26,1.12 5.62,-0.78 5.43,-2.98 -0.02,-0.28 -0.1,-0.56 -0.24,-0.84 0.07,0.28 0.15,0.56 0.24,0.84 0.92,2.92 2.7,5.73 5.57,6.69 2.97,0.98 6.85,-1.37 6.63,-4.35 m -56.02,-18.9 c 0.34,-0.82 0.26,-1.69 -0.48,-2.36 0.16,0.78 0.32,1.58 0.48,2.36 z"
             clip-path="url(#SVGID_4_)"
             id="path648"
             transform="translate(-173.6972,3.0765847)" />
          <path
             class="st25"
             d="m 107.36,345.75 c 0,0.5 -0.19,1.03 -0.46,1.61 -1.18,2.54 -3.94,5.97 0.98,11.89 1.87,-1.78 3.22,-4.1 3.84,-6.6 -0.31,2.95 0.35,6.49 3.02,7.78 1.78,0.85 4.01,-0.54 4.67,-2.16"
             clip-path="url(#SVGID_4_)"
             id="path650"
             transform="translate(-173.6972,3.0765847)" />
          <path
             class="st25"
             d="m 97.64,336.68 c 0.05,0.11 0.09,0.23 0.12,0.34 1.24,3.48 -0.06,8.12 1.96,12.16 2.44,-0.05 5.92,-0.24 7.18,-1.81 0.34,-0.43 0.51,-0.96 0.46,-1.61 v -0.05 m 392.31,28.8 c 0.94,1.51 3.58,1.85 5.12,0.66 0.54,-0.42 0.97,-0.93 1.3,-1.51 0.81,-1.37 1.1,-3.1 1.21,-4.73 m -7.63,5.58 a 2.6,2.6 0 0 0 -0.33,-0.97 c 0.03,0.36 0.14,0.68 0.33,0.97 z m -7.84,0.04 c 0.23,2.18 2.09,4.19 4.28,4.16 2.1,-0.03 3.85,-2.23 3.55,-4.2 m -7.83,0.04 c 0.01,-0.25 0,-0.51 -0.02,-0.76 -0.02,0.25 -0.01,0.51 0.02,0.76 z"
             clip-path="url(#SVGID_4_)"
             id="path652"
             transform="translate(-173.6972,3.0765847)" />
          <path
             class="st25"
             d="m 413.71,381.96 c 0.2,3.15 3.21,5.89 6.39,5.73 3.26,-0.17 6.05,-3.39 5.74,-6.65 1.4,2.6 3.83,4.87 6.76,5.11 2.94,0.23 6.07,-2.34 5.62,-5.25 1.5,2.6 4.6,4.19 7.58,3.88 2.99,-0.3 5.7,-2.46 6.65,-5.31 1.13,3.2 3.88,6.02 7.26,6.37 3.37,0.35 7,-2.48 6.74,-5.87 1.19,2.95 4.6,4.82 7.73,4.25 3.12,-0.58 5.65,-3.52 5.73,-6.7 1.42,2.51 4.71,3.81 7.46,2.95 2.52,-0.79 4.37,-3.3 4.47,-5.93 m -89.05,6.17 c -0.09,0.42 -0.13,0.85 -0.1,1.28 0.13,2.64 2.33,5.16 5.01,5.39 3.02,0.26 5.93,-2.42 6,-5.43 0,-0.1 0,-0.2 -0.01,-0.3 m 219.12,-82.96 c 0.67,-0.29 1.49,-0.44 2.24,-0.58 1.27,-0.24 2.33,-0.47 2.14,-1.33 -0.02,-0.11 -0.07,-0.23 -0.14,-0.36 m -11.73,8.81 c 0.62,1.33 2.54,2.25 4.01,1.59 2.06,-0.93 -1.03,-7.46 -1.31,-9.7 0.34,0.49 0.81,0.99 1.33,1.44 0.67,0.58 1.44,1.08 2.15,1.34 0.21,-0.58 0.7,-0.94 1.31,-1.2 m -7.49,6.53 c 0.01,-0.58 0,-1.17 -0.02,-1.74 -0.29,0.59 -0.25,1.2 0.02,1.74 z"
             clip-path="url(#SVGID_4_)"
             id="path654"
             transform="translate(-173.6972,3.0765847)" />
          <path
             class="st25"
             d="m 607.52,315.7 c 0.9,1.56 3.63,2.02 5.26,0.84 1.96,-1.42 2.6,-4.01 3.03,-6.39 -0.05,3.12 4.78,4.2 7.07,2.08 1.88,-1.72 2.39,-4.38 2.44,-7 m -17.81,10.45 c -0.09,-0.37 -0.19,-0.74 -0.29,-1.1 0,0.41 0.1,0.78 0.29,1.1 z m 0,0 0.01,0.01 v 0.01 m -6,7.06 c 1.09,1.51 4.33,1.54 5.57,-0.28 1.32,-1.94 1.01,-4.45 0.42,-6.78 m -5.99,7.06 c -0.1,-0.44 -0.22,-0.89 -0.35,-1.32 -0.05,0.52 0.09,0.96 0.35,1.32 z"
             clip-path="url(#SVGID_4_)"
             id="path656"
             transform="translate(-173.6972,3.0765847)" />
          <path
             class="st25"
             d="m 597.74,327.11 c 0.85,1.39 2.09,2.53 3.57,3.21 0.7,-2.45 0.77,-5.08 0.22,-7.57 m -3.79,4.36 c -0.07,-1.12 -0.44,-2.24 -1.13,-3.12 0.15,1.1 0.54,2.17 1.13,3.12 z"
             clip-path="url(#SVGID_4_)"
             id="path658"
             transform="translate(-173.6972,3.0765847)" />
          <path
             class="st25"
             d="m 559.16,344.28 c 1.16,1.88 4.28,2.89 6.39,1.62 2.89,-1.75 3.67,-5.62 3.4,-8.99 0.56,3.08 4.72,4.5 7.44,2.96 2.71,-1.53 3.82,-5.07 3.28,-8.14 0.65,2.9 4.14,4.78 6.94,3.74 2,-0.75 3.28,-2.87 3.32,-4.98 0.01,-0.29 -0.01,-0.59 -0.06,-0.88 -0.08,-0.53 -0.24,-1.03 -0.49,-1.51 -0.17,0.87 0.07,1.71 0.55,2.39 1.16,1.65 3.72,2.53 5.57,1.45 0.18,-0.1 0.35,-0.22 0.51,-0.36 0.5,-0.4 0.89,-0.9 1.17,-1.47 0.46,-0.9 0.65,-1.95 0.57,-2.99 m -38.59,17.16 c -0.08,-0.82 -0.21,-1.63 -0.33,-2.42 -0.28,0.88 -0.11,1.71 0.33,2.42 z"
             clip-path="url(#SVGID_4_)"
             id="path660"
             transform="translate(-173.6972,3.0765847)" />
          <path
             class="st25"
             d="m 543.42,354.82 c 0.79,1.94 3.21,3.33 5.25,2.55 1.76,-0.68 3.64,-3.32 4.21,-5.66 0.03,-0.15 0.07,-0.31 0.09,-0.46 0.19,-1.12 0.04,-2.12 -0.62,-2.77 a 4.7,4.7 0 0 0 0.41,2.37 c 0.07,0.14 0.14,0.27 0.21,0.4 1.05,1.75 3.14,2.43 4.67,0.56 1.67,-2.05 1.8,-4.82 1.53,-7.54 m -15.75,10.55 c 0.01,-0.71 -0.06,-1.42 -0.18,-2.1 -0.18,0.72 -0.1,1.44 0.18,2.1 z"
             clip-path="url(#SVGID_4_)"
             id="path662"
             transform="translate(-173.6972,3.0765847)" />
          <path
             class="st25"
             d="m 533.13,359.83 c 1.15,2.35 4.89,3.22 7.21,1.65 2.12,-1.43 3.06,-4.05 3.08,-6.66 m -10.29,5.01 c -0.05,-0.42 -0.17,-0.84 -0.35,-1.24 0.03,0.45 0.15,0.86 0.35,1.24 z m -12.47,0.2 c 1.62,2.58 7.04,6.73 9.43,5.62 2.15,-0.99 3.39,-3.52 3.03,-5.83 m -12.46,0.21 c -0.08,-0.15 -0.15,-0.3 -0.24,-0.44 0.06,0.14 0.14,0.28 0.24,0.44 z m 0,0"
             clip-path="url(#SVGID_4_)"
             id="path664"
             transform="translate(-173.6972,3.0765847)" />
          <path
             class="st25"
             d="m 507.23,368.61 c 0.04,0.08 0.1,0.16 0.17,0.23 1.38,1.62 7.2,1.46 8.16,3.24 3.91,-0.35 6.84,-8.37 5.1,-12.05 M 685.2,229.11 c 0.08,0.25 0.23,0.47 0.43,0.65 0.77,0.7 2.28,0.88 3.11,0.08 0.98,-0.95 1.1,-2.42 0.83,-3.8 a 9.69,9.69 0 0 0 -0.29,-1.09 c -0.21,0.37 -0.03,0.83 0.29,1.09 0.26,0.22 0.6,0.32 0.91,0.18 0.31,-0.14 0.45,-0.47 0.45,-0.8 0,-0.42 -0.23,-0.85 -0.65,-0.94 m -5.08,4.63 c 0,-0.25 -0.01,-0.49 -0.01,-0.74 -0.08,0.27 -0.07,0.52 0.01,0.74 z m -16.13,31.63 c 0.5,1.64 3.87,1.84 4.84,-0.01 1.11,-2.1 0.03,-4.65 -1.05,-6.77 1.6,1.85 4.97,0.4 5.75,-1.92 0.78,-2.32 -0.14,-4.83 -1.04,-7.11 0.96,2.18 4.53,0.26 4.85,-2.1 0.3,-2.36 -0.8,-4.84 -0.01,-7.09 0.02,0.4 0.22,0.77 0.5,1.04 0.31,0.31 0.74,0.49 1.17,0.47 0.61,-2.15 0.98,-4.37 1.08,-6.6 0.04,-0.51 0.04,-1.03 0.04,-1.53 m -16.13,31.62 -0.03,-0.79 c -0.06,0.29 -0.04,0.55 0.03,0.79 z"
             clip-path="url(#SVGID_4_)"
             id="path666"
             transform="translate(-173.6972,3.0765847)" />
          <path
             class="st25"
             d="m 660.89,267.77 c 0.62,1.19 1.31,2.37 2.39,3.14 1.26,0.91 3.21,1.08 4.27,-0.06 0.61,-0.65 0.81,-1.58 0.96,-2.45 0.43,-2.53 0.61,-5.1 0.56,-7.67 m -8.18,7.04 a 4.25,4.25 0 0 0 -0.31,-0.6 c 0.11,0.2 0.21,0.4 0.31,0.6 z m -3.61,4.91 c 0.04,0.15 0.1,0.28 0.17,0.42 0.36,0.82 0.87,1.58 1.51,2.21 0.44,0.46 0.92,0.85 1.45,1.19 0.54,-0.87 0.92,-1.84 1.13,-2.85 0.42,-1.96 0.21,-4.06 -0.65,-5.88"
             clip-path="url(#SVGID_4_)"
             id="path668"
             transform="translate(-173.6972,3.0765847)" />
          <path
             class="st25"
             d="m 653.14,280.01 c 1.12,1.35 4.03,0.69 4.83,-1.12 0.8,-1.83 0.22,-3.9 -0.52,-5.79 -0.06,-0.15 -0.12,-0.28 -0.17,-0.42 -0.0409,-0.0882 -0.0776,-0.1783 -0.11,-0.27 m -4.03,7.6 c -0.09,-0.22 -0.2,-0.43 -0.34,-0.63 0.08,0.24 0.19,0.45 0.34,0.63 z m -14.69,11.1 c 1.16,1.62 3.96,2.21 5.7,0.94 2.26,-1.64 2.61,-5.02 1.55,-7.6 1.35,1.79 4.19,2.22 6.02,0.92 1.63,-1.17 2.21,-3.54 1.42,-5.36 m -14.69,11.1 c -0.15,-0.56 -0.33,-1.12 -0.54,-1.67 -0.01,0.64 0.19,1.2 0.54,1.67 z m -10.79,4.91 c 0.58,2.18 2.85,2.92 5.14,2.67 h 0.01 c 0.77,-0.09 1.53,-0.29 2.24,-0.58 0.1,-0.03 0.2,-0.08 0.3,-0.12 0.67219,-0.30155 1.29303,-0.70645 1.84,-1.2 1.68,-1.57 1.78,-3.64 1.27,-5.66 m 20.52,-15.17 c -0.04,-0.24 -0.05,-0.45 -0.02,-0.65 0.14,-1.08 1.23,-1.59 2.58,-1.66 0.72,-0.03 1.5,0.05 2.26,0.24 0.72,0.17 1.4,0.44 1.97,0.77"
             clip-path="url(#SVGID_4_)"
             id="path670"
             sodipodi:nodetypes="cccccccccccccccccccccccccccc"
             transform="translate(-173.6972,3.0765847)" />
          <path
             class="st25"
             d="m 314.67,67.68 c 8.4,0.06 16.82,0.1 25.26,0.1 57.73,-0.03 116.09,-2.44 170.63,-19.21 8.6,-2.64 17.1,-5.64 25.49,-9.04 M 339.92,68.02 c 6.24,11.73 -0.24,33.03 7.64,43.73 m 0.02,0.24 C 402.03,106.55 456.06,96.75 508.95,82.7"
             clip-path="url(#SVGID_4_)"
             id="path674"
             transform="translate(-173.6972,3.0765847)"
             sodipodi:nodetypes="cccccccc" />
          <path
             class="st25"
             d="m 510.7,47.89 c -0.06,0.22 -0.1,0.45 -0.15,0.68 -0.99,5.51 1.33,13.66 2.6,18.94 1.33,5.51 0.81,12.54 -4.2,15.18"
             clip-path="url(#SVGID_4_)"
             id="path676"
             transform="translate(-173.6972,3.0765847)" />
          <path
             class="st26"
             d="m 348.23,73.98 c -0.02,-0.03 -0.03,-0.06 -0.05,-0.09 -0.16,-0.29 -0.55,-0.55 -0.9,-0.52 -0.77,0.09 -1.48,0.68 -1.24,1.54 0.26,0.93 1.26,0.96 2.04,0.9 2.22,-0.18 4.45,-0.37 6.67,-0.55 4.45,-0.37 8.9,-0.73 13.35,-1.1 l -0.9,-1.57 c -3.04,5.43 -6.07,10.85 -9.11,16.28 -2.65,4.73 -5.09,9.88 -9.22,13.53 -0.67,0.59 -0.14,1.82 0.74,1.78 9.46,-0.43 18.84,-2.12 27.85,-5.04 1.27,-0.41 0.73,-2.42 -0.55,-2.01 -8.84,2.86 -18.01,4.54 -27.29,4.97 l 0.74,1.78 c 4.19,-3.68 6.7,-8.86 9.38,-13.65 3.09,-5.53 6.19,-11.05 9.28,-16.58 0.36,-0.64 -0.08,-1.63 -0.9,-1.57 -3.48,0.29 -6.96,0.57 -10.44,0.86 l -5.14,0.42 -2.57,0.21 c -0.46,0.04 -0.91,0.07 -1.37,0.11 l -0.68,0.06 c -0.41,-0.03 -0.45,0.02 -0.13,0.16 0.1,0.25 0.2,0.49 0.3,0.74 0,-0.04 0.01,-0.08 0.01,-0.12 l -0.31,0.74 c 0.04,-0.03 0.07,-0.06 0.11,-0.08 l -0.74,0.31 c 0.04,0 0.08,-0.01 0.12,-0.01 -0.3,-0.17 -0.6,-0.34 -0.9,-0.52 0.02,0.03 0.03,0.06 0.05,0.09 0.65,1.16 2.45,0.11 1.8,-1.07"
             clip-path="url(#SVGID_4_)"
             id="path678"
             transform="translate(-173.6972,3.0765847)" />
          <path
             class="st26"
             d="m 353.67,92.6 c 4.26,-0.77 8.52,-1.54 12.79,-2.31 0.55,-0.1 0.87,-0.77 0.73,-1.28 -0.16,-0.58 -0.73,-0.83 -1.28,-0.73 -4.26,0.77 -8.52,1.54 -12.79,2.31 -0.55,0.1 -0.87,0.77 -0.73,1.28 0.16,0.58 0.72,0.83 1.28,0.73 m 27.92,-19.55 0.39,24.33 c 0.02,1.34 2.1,1.34 2.08,0 l -0.39,-24.33 c -0.02,-1.34 -2.1,-1.35 -2.08,0 m 9.46,-0.76 -0.72,25.1 c -0.04,1.34 2.04,1.34 2.08,0 l 0.72,-25.1 c 0.04,-1.34 -2.04,-1.34 -2.08,0"
             clip-path="url(#SVGID_4_)"
             id="path680"
             transform="translate(-173.6972,3.0765847)" />
          <path
             class="st26"
             d="m 387.12,74.1 c 2.46,-1.05 5.28,-1.35 7.9,-0.81 0.51,0.1 1.19,0.19 1.63,0.49 0.47,0.32 0.5,0.95 0.55,1.47 0.12,1.37 0.26,2.81 -0.02,4.16 -0.21,1.02 -0.67,2.02 -1.5,2.68 -0.8,0.64 -1.77,0.51 -2.65,0.92 -0.97,0.45 -1.38,1.43 -0.93,2.42 0.58,1.29 1.42,2.5 2.13,3.72 l 5.06,8.72 c 0.67,1.16 2.47,0.11 1.8,-1.05 L 396.2,88.39 395,86.32 c -0.17,-0.3 -0.34,-0.59 -0.51,-0.89 -0.11,-0.2 -0.23,-0.39 -0.34,-0.59 -0.06,-0.11 -0.19,-0.5 -0.22,-0.14 -0.03,0.3 0.08,0.14 0.36,0.08 0.24,-0.05 0.48,-0.07 0.71,-0.12 0.59,-0.12 1.16,-0.37 1.66,-0.72 2.21,-1.54 2.83,-4.24 2.76,-6.8 -0.04,-1.28 0,-2.83 -0.59,-3.99 -0.6,-1.19 -1.87,-1.59 -3.09,-1.85 -3.27,-0.7 -6.6,-0.31 -9.66,0.99 -0.52,0.22 -0.63,0.98 -0.37,1.42 0.3,0.55 0.9,0.61 1.41,0.39 m 15.48,-2.18 c 0.94,8.03 1.87,16.06 2.81,24.1 0.11,0.92 1.43,1.55 1.94,0.53 4.35,-8.69 7.94,-17.75 10.69,-27.06 0.38,-1.29 -1.63,-1.84 -2.01,-0.55 -2.71,9.15 -6.21,18.03 -10.49,26.56 0.65,0.18 1.29,0.35 1.94,0.53 -0.94,-8.03 -1.87,-16.06 -2.81,-24.1 -0.14,-1.33 -2.22,-1.34 -2.07,-0.01"
             clip-path="url(#SVGID_4_)"
             id="path682"
             transform="translate(-173.6972,3.0765847)" />
          <path
             class="st26"
             d="m 411.41,84.2 c 0.73,3.29 1.87,6.48 3.34,9.51 0.25,0.51 0.97,0.64 1.43,0.37 0.52,-0.3 0.62,-0.92 0.37,-1.42 a 40.51,40.51 0 0 1 -3.13,-9.02 c -0.12,-0.55 -0.76,-0.87 -1.28,-0.73 -0.57,0.16 -0.85,0.74 -0.73,1.29 m 9.11,-12.99 c 0.27,3.81 0.51,7.63 0.82,11.44 0.23,2.84 0.6,5.91 2.27,8.32 0.8,1.16 1.93,2.41 3.41,2.57 1.39,0.15 2.56,-0.7 3.37,-1.75 0.95,-1.24 1.46,-2.76 1.92,-4.23 0.53,-1.7 0.92,-3.43 1.17,-5.19 0.56,-3.93 0.42,-7.9 -0.4,-11.78 -0.27,-1.31 -2.28,-0.76 -2.01,0.55 1.23,5.86 0.77,12.05 -1.39,17.64 -0.35,0.92 -0.98,2.32 -2.01,2.64 -1.1,0.34 -2.13,-1.24 -2.6,-2.04 -1.24,-2.13 -1.49,-4.71 -1.67,-7.13 -0.28,-3.68 -0.53,-7.36 -0.79,-11.04 -0.1,-1.33 -2.19,-1.34 -2.09,0 m 26.59,-2.65 c -2.51,-1.03 -5.71,-0.56 -7.59,1.5 -1.75,1.93 -2.25,5.11 -0.69,7.3 0.98,1.37 2.26,1.17 3.74,1.17 1.18,0 2.43,0.17 3.49,0.71 2.45,1.26 2.5,4.04 0.93,6.06 -2.17,2.79 -6.2,2.83 -9.41,2.86 -1.34,0.01 -1.34,2.09 0,2.08 3.03,-0.02 6.31,-0.14 8.96,-1.79 2.11,-1.31 3.76,-3.79 3.65,-6.34 -0.12,-2.59 -2.01,-4.46 -4.39,-5.22 -1.22,-0.39 -2.54,-0.51 -3.81,-0.44 -0.68,0.04 -1.19,0.17 -1.58,-0.49 -0.34,-0.58 -0.46,-1.27 -0.42,-1.93 0.18,-3.35 3.8,-4.6 6.57,-3.46 1.23,0.5 1.77,-1.51 0.55,-2.01 m 6.91,-0.44 c 2.02,-0.49 4.04,-0.97 6.06,-1.46 1.84,-0.44 3.92,-1.24 5.82,-0.79 -0.21,-0.51 -0.41,-1.02 -0.62,-1.53 -1.93,3.87 -3.49,7.91 -4.61,12.09 -0.52,1.95 -0.88,3.89 -2.09,5.55 -1.03,1.42 -2.2,2.77 -2.16,4.63 0.01,0.63 0.66,1.24 1.32,1 3.79,-1.38 7.63,-2.6 11.52,-3.68 1.29,-0.36 0.74,-2.37 -0.55,-2.01 -3.89,1.08 -7.73,2.3 -11.52,3.68 0.44,0.33 0.88,0.67 1.32,1 -0.04,-1.62 1.43,-2.85 2.24,-4.11 1.07,-1.66 1.43,-3.64 1.94,-5.52 1.07,-4 2.55,-7.88 4.4,-11.59 0.29,-0.57 0.07,-1.37 -0.62,-1.53 -2.12,-0.49 -4.2,0.14 -6.25,0.63 l -6.74,1.62 c -1.32,0.33 -0.77,2.34 0.54,2.02"
             clip-path="url(#SVGID_4_)"
             id="path684"
             transform="translate(-173.6972,3.0765847)" />
          <path
             class="st26"
             d="m 456.95,76.62 c 3.62,-1.01 7.23,-2.01 10.85,-3.02 1.29,-0.36 0.74,-2.37 -0.55,-2.01 -3.62,1.01 -7.23,2.01 -10.85,3.02 -1.3,0.36 -0.75,2.37 0.55,2.01 M 474,64.06 c -0.01,2.92 -0.02,5.84 -0.02,8.77 0,1.46 -0.01,2.92 -0.01,4.38 0,1.03 0.04,2.13 0.53,3.05 1.33,2.48 4.19,1.4 6.18,0.54 2.42,-1.05 4.73,-2.34 6.91,-3.84 1.1,-0.76 0.06,-2.56 -1.05,-1.8 a 39.81,39.81 0 0 1 -5.84,3.36 c -0.96,0.45 -1.99,0.98 -3.04,1.19 -1.01,0.19 -1.43,-0.34 -1.56,-1.28 -0.14,-0.98 -0.04,-2.02 -0.04,-3.01 0,-1.3 0.01,-2.6 0.01,-3.9 0.01,-2.49 0.01,-4.98 0.02,-7.47 0,-1.33 -2.09,-1.34 -2.09,0.01"
             clip-path="url(#SVGID_4_)"
             id="path686"
             transform="translate(-173.6972,3.0765847)" />
          <path
             class="st26"
             d="m 476,73.51 c 2.14,-0.7 4.27,-1.4 6.41,-2.11 0.52,-0.17 0.91,-0.73 0.73,-1.28 -0.17,-0.52 -0.73,-0.91 -1.28,-0.73 -2.14,0.7 -4.27,1.4 -6.41,2.1 -0.52,0.17 -0.91,0.73 -0.73,1.28 0.17,0.53 0.73,0.92 1.28,0.74 m -0.37,-7.08 c 2.96,-1.11 5.83,-2.46 8.57,-4.04 1.16,-0.67 0.11,-2.47 -1.05,-1.8 a 54.646,54.646 0 0 1 -8.07,3.83 c -0.53,0.2 -0.89,0.7 -0.73,1.28 0.14,0.51 0.75,0.93 1.28,0.73 m 13.14,-7.2 c -0.21,5.92 0.33,11.84 1.58,17.63 0.12,0.53 0.77,0.89 1.28,0.73 2.28,-0.75 4.55,-1.49 6.83,-2.24 1.27,-0.42 0.73,-2.43 -0.55,-2.01 -2.28,0.75 -4.55,1.49 -6.83,2.24 0.43,0.24 0.85,0.48 1.28,0.73 a 69.47,69.47 0 0 1 -1.5,-17.08 c 0.04,-1.34 -2.04,-1.34 -2.09,0 m 12.24,-0.78 c 0.19,5.24 0.83,10.47 1.92,15.6 0.28,1.31 2.29,0.76 2.01,-0.55 A 87.55,87.55 0 0 1 503.1,58.45 c -0.06,-1.33 -2.14,-1.34 -2.09,0"
             clip-path="url(#SVGID_4_)"
             id="path688"
             transform="translate(-173.6972,3.0765847)" />
          <path
             class="st26"
             d="m 494.89,59.61 c 4.28,-0.43 8.4,-1.83 12.03,-4.15 1.12,-0.72 0.08,-2.53 -1.05,-1.8 -3.3,2.12 -7.07,3.48 -10.98,3.87 -0.56,0.06 -1.04,0.44 -1.04,1.04 -0.01,0.52 0.47,1.1 1.04,1.04"
             clip-path="url(#SVGID_4_)"
             id="path690"
             transform="translate(-173.6972,3.0765847)" />
        </g>
      </g>
    </a>
    <g
       class="tree"
       id="XMLID_33_"
       style="display:none">
      <path
         class="st308"
         d="m 869.32,152.51 -3.85,5.82 -2.24,-5.76 c 2.03,-0.01 4.06,-0.02 6.09,-0.06 z"
         id="path4077" />
      <path
         class="st309"
         d="m 850.39,152.54 c 4.1,0.05 8.19,0.06 12.27,0.03 l -6.02,10.35 z m 57.69,-1.27 -2.42,5.22 -2.23,-4.99 c 1.55,-0.06 3.1,-0.14 4.65,-0.23 z"
         id="path4079" />
      <path
         class="st308"
         d="m 903.2,151.51 -2.44,4.98 c 0,0 -2.53,-2.95 -4,-4.71 2.15,-0.07 4.3,-0.17 6.44,-0.27 z"
         id="path4081" />
      <path
         class="st309"
         d="m 888.55,152.09 c 1.94,-0.06 3.87,-0.13 5.8,-0.2 -2.09,2.54 -5.36,8.27 -5.36,8.27 z"
         id="path4083" />
      <path
         class="st308"
         d="m 887.64,152.12 -4.53,4.38 -4.07,-4.14 c 2.88,-0.07 5.74,-0.15 8.6,-0.24 z"
         id="path4085" />
      <path
         class="st309"
         d="m 878.26,152.37 -2.01,5.96 -6.49,-5.82 c 2.84,-0.03 5.68,-0.08 8.5,-0.14 z"
         id="path4087" />
      <path
         class="st308"
         d="m 849.41,152.54 -7.47,11.29 -13.16,-11.57 0.01,-0.19 c 6.88,0.24 13.76,0.4 20.62,0.47 z"
         id="path4089" />
      <path
         class="st309"
         d="m 828.79,152.07 -0.01,0.19 -5.46,6.98 -4.59,-7.48 0.01,-0.12 c 3.35,0.17 6.69,0.31 10.05,0.43 z"
         id="path4091" />
      <path
         class="st308"
         d="m 818.74,151.65 -0.01,0.12 -6.2,12.06 c 0,0 -4.62,-11.23 -6.82,-12.92 4.34,0.29 8.69,0.54 13.03,0.74 z"
         id="path4093" />
      <path
         class="st309"
         d="m 804.94,150.86 c -2.41,1.57 -7.11,16.64 -7.11,16.64 l -8.3,-17.83 c 5.13,0.46 10.27,0.85 15.41,1.19 z"
         id="path4095" />
      <path
         class="st308"
         d="m 788.51,149.58 -11.26,14.25 -7.71,-16.24 c 6.29,0.76 12.62,1.42 18.97,1.99 z"
         id="path4097" />
      <path
         class="st309"
         d="m 769.24,147.55 -6.7,9.86 -9.61,-12.03 c 5.41,0.8 10.85,1.53 16.31,2.17 z"
         id="path4099" />
      <path
         class="st308"
         d="m 751.6,145.17 -6.89,11.04 -7.4,-13.36 v -0.02 c 4.74,0.86 9.51,1.63 14.29,2.34 z"
         id="path4101" />
      <path
         class="st309"
         d="m 737.31,142.84 v 0.02 l -7.93,11.87 -8.98,-14.84 0.08,-0.31 c 5.56,1.18 11.18,2.26 16.83,3.26 z"
         id="path4103" />
      <path
         class="st308"
         d="m 720.48,139.58 -0.08,0.31 -7.85,12.02 -9.6,-15.97 0.11,-0.36 c 5.75,1.44 11.55,2.77 17.42,4 z"
         id="path4105" />
      <path
         class="st309"
         d="m 703.06,135.58 -0.11,0.36 -8.05,10.47 -7.05,-14.91 c 5.02,1.44 10.09,2.79 15.21,4.08 z"
         id="path4107" />
      <path
         class="st308"
         d="m 687.43,131.36 -6.25,12.29 c 0,0 -4.25,-11.93 -5.51,-15.89 3.89,1.26 7.81,2.46 11.76,3.6 z"
         id="path4109" />
      <path
         class="st309"
         d="m 674.96,127.53 -10.45,10.61 -6.5,-16.06 0.19,-0.43 c 5.51,2.1 11.1,4.05 16.76,5.88 z"
         id="path4111" />
      <path
         class="st308"
         d="m 658.2,121.66 -0.19,0.43 -9.52,8.41 -3.67,-14.19 c 4.41,1.87 8.86,3.65 13.38,5.35 z"
         id="path4113" />
      <path
         class="st309"
         d="m 644.68,116.24 -11.54,9.98 -3.16,-16.5 0.07,-0.12 c 4.81,2.33 9.68,4.54 14.63,6.64 z"
         id="path4115" />
      <path
         class="st308"
         d="m 630.06,109.6 -0.07,0.12 -12.53,13.75 -2.76,-21.86 c 5.02,2.8 10.14,5.47 15.36,7.99 z"
         id="path4117" />
      <path
         class="st309"
         d="m 614.51,101.51 -8.81,11.87 -5.31,-19.99 0.16,-0.22 c 4.55,2.91 9.21,5.68 13.96,8.34 z"
         id="path4119" />
      <path
         class="st308"
         d="m 600.54,93.17 -0.16,0.22 -16.25,5.31 0.39,-16.59 c 5.19,3.88 10.53,7.57 16.02,11.06 z"
         id="path4121" />
      <path
         class="st309"
         d="m 584.45,82.05 -13.06,6.57 c 0,0 -0.98,-14.68 -1.67,-17.48 l 0.53,-0.53 c 4.59,3.98 9.32,7.81 14.2,11.44 z"
         id="path4123" />
      <path
         class="st308"
         d="m 570.25,70.6 -0.53,0.53 -13.04,0.06 -6.67,-20.5 c 6.36,7.08 13.12,13.71 20.24,19.91 z"
         id="path4125" />
      <g
         id="g4131">
        <path
           class="st310"
           d="m 913.5,150.99 c -1.8,0.1 -3.61,0.2 -5.42,0.28 -1.55,0.08 -3.1,0.17 -4.66,0.23 -0.07,0.01 -0.15,0.01 -0.23,0.01 -2.14,0.1 -4.28,0.2 -6.44,0.28 -0.79,0.05 -1.6,0.07 -2.4,0.1 -1.93,0.07 -3.86,0.15 -5.8,0.2 -0.3,0.01 -0.61,0.03 -0.91,0.03 -2.86,0.09 -5.72,0.17 -8.6,0.24 -0.25,0 -0.52,0.01 -0.78,0.01 -2.82,0.06 -5.66,0.11 -8.5,0.14 -0.15,0.02 -0.29,0.02 -0.44,0.01 -2.03,0.04 -4.06,0.05 -6.1,0.06 -0.19,0.01 -0.37,0.01 -0.56,0 -4.09,0.03 -8.18,0.02 -12.27,-0.03 -0.32,0.01 -0.66,0 -0.98,0 -6.86,-0.07 -13.74,-0.23 -20.62,-0.47 -3.35,-0.12 -6.7,-0.26 -10.05,-0.42 -4.34,-0.2 -8.69,-0.45 -13.03,-0.74 -0.25,-0.01 -0.51,-0.03 -0.77,-0.05 -5.14,-0.34 -10.27,-0.73 -15.41,-1.19 l -1.02,-0.09 c -6.34,-0.57 -12.67,-1.23 -18.98,-1.99 -0.1,0 -0.2,-0.02 -0.28,-0.04 -5.46,-0.64 -10.9,-1.37 -16.31,-2.17 -0.45,-0.06 -0.89,-0.13 -1.33,-0.2 -4.78,-0.72 -9.55,-1.49 -14.29,-2.33 -5.65,-1 -11.26,-2.08 -16.83,-3.27 -5.86,-1.23 -11.67,-2.56 -17.42,-4 -5.12,-1.28 -10.18,-2.64 -15.2,-4.09 -0.15,-0.05 -0.28,-0.08 -0.42,-0.13 -3.95,-1.14 -7.87,-2.34 -11.76,-3.6 -0.24,-0.07 -0.47,-0.16 -0.71,-0.23 -5.67,-1.83 -11.25,-3.79 -16.76,-5.88 -4.52,-1.7 -8.97,-3.48 -13.37,-5.35 l -0.15,-0.06 c -4.95,-2.1 -9.82,-4.31 -14.63,-6.64 -5.21,-2.52 -10.34,-5.19 -15.36,-7.99 -0.07,-0.04 -0.13,-0.07 -0.19,-0.1 -4.75,-2.66 -9.41,-5.43 -13.97,-8.34 C 595.06,89.69 589.72,86 584.53,82.12 584.5,82.1 584.48,82.08 584.45,82.06 579.58,78.43 574.84,74.6 570.26,70.61 A 230.28,230.28 0 0 1 550.03,50.7 c -0.1,-0.11 -0.2,-0.21 -0.29,-0.32 -0.63,-0.7 -1.24,-1.4 -1.86,-2.11 -2.34,-2.69 -4.64,-5.44 -6.86,-8.26"
           id="path4127" />
        <path
           class="st310"
           d="m 549.82,50.09 0.2,0.6 6.67,20.5 13.04,-0.06 c 0.69,2.81 1.67,17.48 1.67,17.48 l 13.06,-6.57 0.08,-0.04 v 0.1 l -0.39,16.59 16.25,-5.31 5.31,19.99 8.81,-11.87 0.15,-0.2 0.04,0.3 2.76,21.86 12.53,-13.75 3.16,16.5 11.54,-9.98 0.11,-0.09 0.04,0.16 3.67,14.19 9.52,-8.41 6.5,16.06 10.45,-10.61 0.49,-0.5 c 0.06,0.19 0.13,0.44 0.22,0.73 1.25,3.95 5.51,15.89 5.51,15.89 l 6.25,-12.29 0.19,-0.37 0.24,0.5 7.05,14.91 8.05,-10.47 9.6,15.97 7.85,-12.02 8.98,14.84 7.93,-11.87 7.4,13.36 6.89,-11.04 0.52,-0.83 0.81,1.03 9.61,12.03 6.7,-9.86 0.16,-0.23 0.13,0.27 7.71,16.24 11.26,-14.25 0.62,-0.78 0.4,0.87 8.3,17.83 c 0,0 4.7,-15.07 7.11,-16.64 0.21,-0.14 0.4,-0.17 0.58,-0.08 0.06,0.04 0.13,0.07 0.2,0.13 2.21,1.7 6.82,12.92 6.82,12.92 l 6.2,-12.06 4.59,7.48 5.46,-6.98 13.16,11.57 7.47,-11.29 0.51,-0.77 0.47,0.77 6.25,10.37 6.02,-10.35 0.3,-0.56 0.23,0.57 2.24,5.76 3.85,-5.82 0.17,-0.25 0.27,0.24 6.49,5.82 2.01,-5.96 0.21,-0.6 0.58,0.59 4.07,4.14 4.53,-4.38 0.87,-0.84 0.04,0.82 0.44,8.07 c 0,0 3.27,-5.73 5.36,-8.27 0.73,-0.9 1.31,-1.4 1.56,-1.11 0.19,0.22 0.48,0.58 0.84,1.01 1.47,1.75 4,4.71 4,4.71 l 2.44,-4.98 0.12,-0.24 0.11,0.23 2.23,4.99 2.42,-5.22"
           id="path4129" />
      </g>
    </g>
  </g>
</svg>
